# This file uses centimeters as units for non-parametric coordinates.

mtllib scale.mtl
g default
v -6.018177 0.486638 1.149590
v -2.179556 0.486638 1.149590
v -6.018177 15.841120 1.149590
v -2.179556 15.841120 1.149590
v -6.018177 15.841120 -2.689030
v -2.179556 15.841120 -2.689030
v -6.018177 0.486638 -2.689030
v -2.179556 0.486638 -2.689030
v 1.772643 0.486638 1.149590
v 5.611263 0.486638 1.149590
v 1.772643 15.841120 1.149590
v 5.611263 15.841120 1.149590
v 1.772643 15.841120 -2.689030
v 5.611263 15.841120 -2.689030
v 1.772643 0.486638 -2.689030
v 5.611263 0.486638 -2.689030
v -3.841189 14.332174 1.149590
v 3.842523 14.332174 1.149590
v -3.841189 29.686655 1.149590
v 3.842523 29.686655 1.149590
v -3.841189 29.686655 -2.689030
v 3.842523 29.686655 -2.689030
v -3.841189 14.332174 -2.689030
v 3.842523 14.332174 -2.689030
v -2.886153 29.201820 2.269384
v 2.887487 29.201820 2.269384
v -2.886153 35.183540 2.269384
v 2.887487 35.183540 2.269384
v -2.886153 35.183540 -3.808824
v 2.887487 35.183540 -3.808824
v -2.886153 29.201820 -3.808824
v 2.887487 29.201820 -3.808824
v 17.194983 24.922314 1.149590
v 17.293314 28.759674 1.149590
v 3.017820 25.285599 1.149590
v 3.116152 29.122959 1.149590
v 3.017820 25.285599 -2.689030
v 3.116152 29.122959 -2.689030
v 17.194983 24.922314 -2.689030
v 17.293314 28.759674 -2.689030
v -17.256996 28.761431 1.149590
v -17.158560 24.920313 1.149590
v -3.071658 29.124960 1.149590
v -2.973221 25.283842 1.149590
v -3.071658 29.124960 -2.689030
v -2.973221 25.283842 -2.689030
v -17.256996 28.761431 -2.689030
v -17.158560 24.920313 -2.689030
vt 0.375000 0.000000
vt 0.625000 0.000000
vt 0.375000 0.250000
vt 0.625000 0.250000
vt 0.375000 0.500000
vt 0.625000 0.500000
vt 0.375000 0.750000
vt 0.625000 0.750000
vt 0.375000 1.000000
vt 0.625000 1.000000
vt 0.875000 0.000000
vt 0.875000 0.250000
vt 0.125000 0.000000
vt 0.125000 0.250000
vt 0.375000 0.000000
vt 0.625000 0.000000
vt 0.625000 0.250000
vt 0.375000 0.250000
vt 0.625000 0.500000
vt 0.375000 0.500000
vt 0.625000 0.750000
vt 0.375000 0.750000
vt 0.625000 1.000000
vt 0.375000 1.000000
vt 0.875000 0.000000
vt 0.875000 0.250000
vt 0.125000 0.000000
vt 0.125000 0.250000
vt 0.375000 0.000000
vt 0.625000 0.000000
vt 0.625000 0.250000
vt 0.375000 0.250000
vt 0.625000 0.500000
vt 0.375000 0.500000
vt 0.625000 0.750000
vt 0.375000 0.750000
vt 0.625000 1.000000
vt 0.375000 1.000000
vt 0.875000 0.000000
vt 0.875000 0.250000
vt 0.125000 0.000000
vt 0.125000 0.250000
vt 0.375000 0.000000
vt 0.625000 0.000000
vt 0.625000 0.250000
vt 0.375000 0.250000
vt 0.625000 0.500000
vt 0.375000 0.500000
vt 0.625000 0.750000
vt 0.375000 0.750000
vt 0.625000 1.000000
vt 0.375000 1.000000
vt 0.875000 0.000000
vt 0.875000 0.250000
vt 0.125000 0.000000
vt 0.125000 0.250000
vt 0.375000 0.000000
vt 0.625000 0.000000
vt 0.625000 0.250000
vt 0.375000 0.250000
vt 0.625000 0.500000
vt 0.375000 0.500000
vt 0.625000 0.750000
vt 0.375000 0.750000
vt 0.625000 1.000000
vt 0.375000 1.000000
vt 0.875000 0.000000
vt 0.875000 0.250000
vt 0.125000 0.000000
vt 0.125000 0.250000
vt 0.375000 0.000000
vt 0.625000 0.000000
vt 0.625000 0.250000
vt 0.375000 0.250000
vt 0.625000 0.500000
vt 0.375000 0.500000
vt 0.625000 0.750000
vt 0.375000 0.750000
vt 0.625000 1.000000
vt 0.375000 1.000000
vt 0.875000 0.000000
vt 0.875000 0.250000
vt 0.125000 0.000000
vt 0.125000 0.250000
vn 0.000000 0.000000 1.000000
vn 0.000000 0.000000 1.000000
vn 0.000000 0.000000 1.000000
vn 0.000000 0.000000 1.000000
vn 0.000000 1.000000 0.000000
vn 0.000000 1.000000 0.000000
vn 0.000000 1.000000 0.000000
vn 0.000000 1.000000 0.000000
vn 0.000000 0.000000 -1.000000
vn 0.000000 0.000000 -1.000000
vn 0.000000 0.000000 -1.000000
vn 0.000000 0.000000 -1.000000
vn 0.000000 -1.000000 0.000000
vn 0.000000 -1.000000 0.000000
vn 0.000000 -1.000000 0.000000
vn 0.000000 -1.000000 0.000000
vn 1.000000 0.000000 0.000000
vn 1.000000 0.000000 0.000000
vn 1.000000 0.000000 0.000000
vn 1.000000 0.000000 0.000000
vn -1.000000 0.000000 0.000000
vn -1.000000 0.000000 0.000000
vn -1.000000 0.000000 0.000000
vn -1.000000 0.000000 0.000000
vn 0.000000 0.000000 1.000000
vn 0.000000 0.000000 1.000000
vn 0.000000 0.000000 1.000000
vn 0.000000 0.000000 1.000000
vn 0.000000 1.000000 0.000000
vn 0.000000 1.000000 0.000000
vn 0.000000 1.000000 0.000000
vn 0.000000 1.000000 0.000000
vn 0.000000 0.000000 -1.000000
vn 0.000000 0.000000 -1.000000
vn 0.000000 0.000000 -1.000000
vn 0.000000 0.000000 -1.000000
vn 0.000000 -1.000000 0.000000
vn 0.000000 -1.000000 0.000000
vn 0.000000 -1.000000 0.000000
vn 0.000000 -1.000000 0.000000
vn 1.000000 0.000000 0.000000
vn 1.000000 0.000000 0.000000
vn 1.000000 0.000000 0.000000
vn 1.000000 0.000000 0.000000
vn -1.000000 0.000000 0.000000
vn -1.000000 0.000000 0.000000
vn -1.000000 0.000000 0.000000
vn -1.000000 0.000000 0.000000
vn 0.000000 0.000000 1.000000
vn 0.000000 0.000000 1.000000
vn 0.000000 0.000000 1.000000
vn 0.000000 0.000000 1.000000
vn 0.000000 1.000000 0.000000
vn 0.000000 1.000000 0.000000
vn 0.000000 1.000000 0.000000
vn 0.000000 1.000000 0.000000
vn 0.000000 0.000000 -1.000000
vn 0.000000 0.000000 -1.000000
vn 0.000000 0.000000 -1.000000
vn 0.000000 0.000000 -1.000000
vn 0.000000 -1.000000 0.000000
vn 0.000000 -1.000000 0.000000
vn 0.000000 -1.000000 0.000000
vn 0.000000 -1.000000 0.000000
vn 1.000000 0.000000 0.000000
vn 1.000000 0.000000 0.000000
vn 1.000000 0.000000 0.000000
vn 1.000000 0.000000 0.000000
vn -1.000000 0.000000 0.000000
vn -1.000000 0.000000 0.000000
vn -1.000000 0.000000 0.000000
vn -1.000000 0.000000 0.000000
vn 0.000000 0.000000 1.000000
vn 0.000000 0.000000 1.000000
vn 0.000000 0.000000 1.000000
vn 0.000000 0.000000 1.000000
vn 0.000000 1.000000 0.000000
vn 0.000000 1.000000 0.000000
vn 0.000000 1.000000 0.000000
vn 0.000000 1.000000 0.000000
vn 0.000000 0.000000 -1.000000
vn 0.000000 0.000000 -1.000000
vn 0.000000 0.000000 -1.000000
vn 0.000000 0.000000 -1.000000
vn 0.000000 -1.000000 0.000000
vn 0.000000 -1.000000 0.000000
vn 0.000000 -1.000000 0.000000
vn 0.000000 -1.000000 0.000000
vn 1.000000 0.000000 0.000000
vn 1.000000 0.000000 0.000000
vn 1.000000 0.000000 0.000000
vn 1.000000 0.000000 0.000000
vn -1.000000 0.000000 0.000000
vn -1.000000 0.000000 0.000000
vn -1.000000 0.000000 0.000000
vn -1.000000 0.000000 0.000000
vn -0.000000 0.000000 1.000000
vn -0.000000 0.000000 1.000000
vn 0.000000 0.000000 1.000000
vn 0.000000 0.000000 1.000000
vn -0.999672 0.025616 0.000000
vn -0.999672 0.025616 0.000000
vn -0.999672 0.025616 0.000000
vn -0.999672 0.025616 0.000000
vn 0.000000 0.000000 -1.000000
vn 0.000000 0.000000 -1.000000
vn -0.000000 0.000000 -1.000000
vn -0.000000 0.000000 -1.000000
vn 0.999672 -0.025616 0.000000
vn 0.999672 -0.025616 0.000000
vn 0.999672 -0.025616 0.000000
vn 0.999672 -0.025616 0.000000
vn 0.025616 0.999672 0.000000
vn 0.025616 0.999672 0.000000
vn 0.025616 0.999672 0.000000
vn 0.025616 0.999672 0.000000
vn -0.025616 -0.999672 0.000000
vn -0.025616 -0.999672 0.000000
vn -0.025616 -0.999672 0.000000
vn -0.025616 -0.999672 0.000000
vn -0.000000 0.000000 1.000000
vn -0.000000 0.000000 1.000000
vn 0.000000 0.000000 1.000000
vn 0.000000 0.000000 1.000000
vn 0.999672 0.025619 0.000000
vn 0.999672 0.025619 0.000000
vn 0.999672 0.025619 0.000000
vn 0.999672 0.025619 0.000000
vn 0.000000 0.000000 -1.000000
vn 0.000000 0.000000 -1.000000
vn 0.000000 0.000000 -1.000000
vn 0.000000 0.000000 -1.000000
vn -0.999672 -0.025618 0.000000
vn -0.999672 -0.025619 0.000000
vn -0.999672 -0.025619 0.000000
vn -0.999672 -0.025619 0.000000
vn 0.025619 -0.999672 0.000000
vn 0.025619 -0.999672 0.000000
vn 0.025619 -0.999672 0.000000
vn 0.025619 -0.999672 0.000000
vn -0.025619 0.999672 0.000000
vn -0.025619 0.999672 0.000000
vn -0.025619 0.999672 0.000000
vn -0.025619 0.999672 0.000000
s 1
g polySurface1
usemtl initialShadingGroup
f 1/1/1 2/2/2 3/3/3
f 3/3/3 2/2/2 4/4/4
s 2
f 3/3/5 4/4/6 5/5/7
f 5/5/7 4/4/6 6/6/8
s 3
f 5/5/9 6/6/10 7/7/11
f 7/7/11 6/6/10 8/8/12
s 4
f 7/7/13 8/8/14 1/9/15
f 1/9/15 8/8/14 2/10/16
s 5
f 2/2/17 8/11/18 4/4/19
f 4/4/19 8/11/18 6/12/20
s 6
f 7/13/21 1/1/22 5/14/23
f 5/14/23 1/1/22 3/3/24
s 7
f 9/15/25 10/16/26 11/18/27
f 11/18/27 10/16/26 12/17/28
s 8
f 11/18/29 12/17/30 13/20/31
f 13/20/31 12/17/30 14/19/32
s 9
f 13/20/33 14/19/34 15/22/35
f 15/22/35 14/19/34 16/21/36
s 10
f 15/22/37 16/21/38 9/24/39
f 9/24/39 16/21/38 10/23/40
s 11
f 10/16/41 16/25/42 12/17/43
f 12/17/43 16/25/42 14/26/44
s 12
f 15/27/45 9/15/46 13/28/47
f 13/28/47 9/15/46 11/18/48
s 13
f 17/29/49 18/30/50 19/32/51
f 19/32/51 18/30/50 20/31/52
s 14
f 19/32/53 20/31/54 21/34/55
f 21/34/55 20/31/54 22/33/56
s 15
f 21/34/57 22/33/58 23/36/59
f 23/36/59 22/33/58 24/35/60
s 16
f 23/36/61 24/35/62 17/38/63
f 17/38/63 24/35/62 18/37/64
s 17
f 18/30/65 24/39/66 20/31/67
f 20/31/67 24/39/66 22/40/68
s 18
f 23/41/69 17/29/70 21/42/71
f 21/42/71 17/29/70 19/32/72
s 19
f 25/43/73 26/44/74 27/46/75
f 27/46/75 26/44/74 28/45/76
s 20
f 27/46/77 28/45/78 29/48/79
f 29/48/79 28/45/78 30/47/80
s 21
f 29/48/81 30/47/82 31/50/83
f 31/50/83 30/47/82 32/49/84
s 22
f 31/50/85 32/49/86 25/52/87
f 25/52/87 32/49/86 26/51/88
s 23
f 26/44/89 32/53/90 28/45/91
f 28/45/91 32/53/90 30/54/92
s 24
f 31/55/93 25/43/94 29/56/95
f 29/56/95 25/43/94 27/46/96
s 25
f 33/57/97 34/58/98 35/60/99
f 35/60/99 34/58/98 36/59/100
s 26
f 35/60/101 36/59/102 37/62/103
f 37/62/103 36/59/102 38/61/104
s 27
f 37/62/105 38/61/106 39/64/107
f 39/64/107 38/61/106 40/63/108
s 28
f 39/64/109 40/63/110 33/66/111
f 33/66/111 40/63/110 34/65/112
s 29
f 34/58/113 40/67/114 36/59/115
f 36/59/115 40/67/114 38/68/116
s 30
f 39/69/117 33/57/118 37/70/119
f 37/70/119 33/57/118 35/60/120
s 31
f 41/71/121 42/72/122 43/74/123
f 43/74/123 42/72/122 44/73/124
s 32
f 43/74/125 44/73/126 45/76/127
f 45/76/127 44/73/126 46/75/128
s 33
f 45/76/129 46/75/130 47/78/131
f 47/78/131 46/75/130 48/77/132
s 34
f 47/78/133 48/77/134 41/80/135
f 41/80/135 48/77/134 42/79/136
s 35
f 42/72/137 48/81/138 44/73/139
f 44/73/139 48/81/138 46/82/140
s 36
f 47/83/141 41/71/142 45/84/143
f 45/84/143 41/71/142 43/74/144
