# This file uses centimeters as units for non-parametric coordinates.

mtllib TillmanGrass.mtl
g default
v -6.625462 -1.286409 1.108532
v 6.940784 -1.286409 1.108532
v 6.940784 7.551836 1.256152
v -6.625462 7.551836 1.282831
v -6.625462 -1.286409 1.108532
v 6.940784 -1.286409 1.108532
v 6.940784 7.551836 1.256152
v -6.625462 7.551836 1.282831
vt 0.323648 0.000000
vt 0.682368 0.000000
vt 0.680545 0.257428
vt 0.323648 0.257428
vt 0.323648 0.000000
vt 0.682368 0.000000
vt 0.680545 0.257428
vt 0.323648 0.257428
vn 0.000000 0.019717 -0.999806
vn -0.000983 0.018209 -0.999834
vn -0.000983 0.018209 -0.999834
vn -0.000983 0.018209 -0.999834
vn 0.000000 -0.019717 0.999806
vn 0.000983 -0.018209 0.999834
vn 0.000983 -0.018209 0.999834
vn 0.000983 -0.018209 0.999834
s 1
g polySurface18
usemtl lambert2SG
f 1/1/1 4/4/2 2/2/3
f 2/2/3 4/4/2 3/3/4
s 2
f 5/5/5 6/6/6 8/8/7
f 8/8/7 6/6/6 7/7/8
