# This file uses centimeters as units for non-parametric coordinates.

mtllib WaterGrass_02.mtl
g default
v -16.468611 -1.288971 -0.111077
v 19.561152 -1.288971 -0.111077
v -15.545094 25.056950 -1.680037
v 20.484669 25.056950 -1.680037
v -16.468611 -1.286409 0.404012
v 19.561152 -1.286409 0.404012
v -15.545094 25.054388 -0.645482
v 20.484669 25.054388 -0.645482
v -18.186554 -1.218247 -3.052289
v 17.173611 -1.354571 3.860313
v -17.263037 25.122551 -4.101783
v 18.097128 24.986225 2.810820
v -17.896709 -1.193686 -4.297795
v 16.883764 -1.379133 5.105820
v -16.973192 25.147112 -5.347290
v 17.807281 24.961664 4.056326
v -17.916660 -1.377666 5.031427
v 16.903715 -1.195152 -4.223403
v -16.993143 24.963131 3.981933
v 17.827232 25.145645 -5.272897
v -18.201174 -1.353080 3.784693
v 17.188231 -1.219739 -2.976670
v -17.277657 24.987717 2.735200
v 18.111748 25.121059 -4.026163
v -9.755961 -1.210906 -3.424552
v 8.743016 -1.361913 4.232576
v -8.832444 25.129890 -4.474046
v 9.666533 24.978886 3.183083
v -9.552328 -1.186484 -4.662917
v 8.539383 -1.386334 5.470941
v -8.628811 25.154312 -5.712410
v 9.462900 24.954464 4.421447
v -6.857024 -1.370483 4.667202
v 5.844079 -1.202335 -3.859178
v -5.933506 24.970314 3.617708
v 6.767596 25.138462 -4.908672
v -6.883410 -1.345824 3.416781
v 5.870465 -1.226995 -2.608757
v -5.959893 24.994972 2.367288
v 6.793983 25.113804 -3.658251
v -16.468611 -1.288971 -0.111077
v 19.561152 -1.288971 -0.111077
v -15.545094 25.056950 -1.680037
v 20.484669 25.056950 -1.680037
v -16.468611 -1.286409 0.404012
v 19.561152 -1.286409 0.404012
v -15.545094 25.054388 -0.645481
v 20.484669 25.054388 -0.645481
v -18.186554 -1.218247 -3.052289
v 17.173611 -1.354571 3.860313
v -17.263037 25.122551 -4.101783
v 18.097128 24.986225 2.810820
v -17.896709 -1.193686 -4.297795
v 16.883764 -1.379133 5.105820
v -16.973192 25.147112 -5.347290
v 17.807281 24.961664 4.056326
v -17.916660 -1.377666 5.031427
v 16.903715 -1.195152 -4.223403
v -16.993143 24.963131 3.981933
v 17.827232 25.145645 -5.272897
v -18.201174 -1.353080 3.784693
v 17.188231 -1.219739 -2.976670
v -17.277657 24.987717 2.735200
v 18.111748 25.121059 -4.026163
v -9.755961 -1.210906 -3.424552
v 8.743016 -1.361913 4.232576
v -8.832444 25.129890 -4.474046
v 9.666533 24.978886 3.183083
v -9.552328 -1.186484 -4.662917
v 8.539383 -1.386334 5.470941
v -8.628811 25.154312 -5.712410
v 9.462900 24.954464 4.421447
v -6.857024 -1.370483 4.667202
v 5.844079 -1.202335 -3.859178
v -5.933506 24.970314 3.617708
v 6.767596 25.138462 -4.908672
v -6.883410 -1.345824 3.416781
v 5.870465 -1.226995 -2.608757
v -5.959893 24.994972 2.367288
v 6.793983 25.113804 -3.658250
vt 0.000000 0.000000
vt 1.000000 0.000000
vt 0.000000 0.993083
vt 1.000000 0.993083
vt 0.000000 0.000000
vt 1.000000 0.000000
vt 1.000000 0.993083
vt 0.000000 0.993083
vt 0.000000 0.000000
vt 1.000000 0.000000
vt 1.000000 0.993083
vt 0.000000 0.993083
vt 0.000000 0.000000
vt 1.000000 0.000000
vt 1.000000 0.993083
vt 0.000000 0.993083
vt 0.000000 0.000000
vt 1.000000 0.000000
vt 1.000000 0.993083
vt 0.000000 0.993083
vt 0.000000 0.000000
vt 1.000000 0.000000
vt 1.000000 0.993083
vt 0.000000 0.993083
vt 0.000000 0.000000
vt 0.588430 0.000000
vt 0.588430 0.993083
vt 0.000000 0.993083
vt 0.000000 0.000000
vt 0.588430 0.000000
vt 0.588430 0.993083
vt 0.000000 0.993083
vt 0.000000 0.000000
vt 0.391291 0.000000
vt 0.391291 0.993083
vt 0.000000 0.993083
vt 0.000000 0.000000
vt 0.391291 0.000000
vt 0.391291 0.993083
vt 0.000000 0.993083
vt 0.000000 0.000000
vt 1.000000 0.000000
vt 1.000000 0.993083
vt 0.000000 0.993083
vt 0.000000 0.000000
vt 1.000000 0.000000
vt 1.000000 0.993083
vt 0.000000 0.993083
vt 0.000000 0.000000
vt 1.000000 0.000000
vt 1.000000 0.993083
vt 0.000000 0.993083
vt 0.000000 0.000000
vt 1.000000 0.000000
vt 1.000000 0.993083
vt 0.000000 0.993083
vt 0.000000 0.000000
vt 1.000000 0.000000
vt 1.000000 0.993083
vt 0.000000 0.993083
vt 0.000000 0.000000
vt 1.000000 0.000000
vt 1.000000 0.993083
vt 0.000000 0.993083
vt 0.000000 0.000000
vt 0.588430 0.000000
vt 0.588430 0.993083
vt 0.000000 0.993083
vt 0.000000 0.000000
vt 0.588430 0.000000
vt 0.588430 0.993083
vt 0.000000 0.993083
vt 0.000000 0.000000
vt 0.391291 0.000000
vt 0.391291 0.993083
vt 0.000000 0.993083
vt 0.000000 0.000000
vt 0.391291 0.000000
vt 0.391291 0.993083
vt 0.000000 0.993083
vn 0.000000 0.000000 -1.000000
vn 0.000000 0.000000 -1.000000
vn 0.000000 0.000000 -1.000000
vn 0.000000 0.000000 -1.000000
vn 0.000000 0.019717 -0.999806
vn 0.000000 0.019717 -0.999806
vn 0.000000 0.019717 -0.999806
vn 0.000000 0.019717 -0.999806
vn 0.191895 0.019351 -0.981225
vn 0.191895 0.019351 -0.981225
vn 0.191895 0.019351 -0.981225
vn 0.191895 0.019351 -0.981225
vn 0.261046 0.019033 -0.965139
vn 0.261046 0.019033 -0.965139
vn 0.261046 0.019033 -0.965139
vn 0.261046 0.019033 -0.965139
vn -0.256916 0.019055 -0.966246
vn -0.256916 0.019055 -0.966246
vn -0.256916 0.019055 -0.966246
vn -0.256916 0.019055 -0.966246
vn -0.187697 0.019367 -0.982036
vn -0.187697 0.019367 -0.982036
vn -0.187697 0.019367 -0.982036
vn -0.187697 0.019367 -0.982036
vn 0.382517 0.018218 -0.923769
vn 0.382517 0.018218 -0.923769
vn 0.382517 0.018218 -0.923769
vn 0.382517 0.018218 -0.923769
vn 0.488767 0.017202 -0.872245
vn 0.488767 0.017202 -0.872245
vn 0.488767 0.017202 -0.872245
vn 0.488767 0.017202 -0.872245
vn -0.557441 0.016369 -0.830055
vn -0.557441 0.016369 -0.830055
vn -0.557441 0.016369 -0.830055
vn -0.557441 0.016369 -0.830055
vn -0.427241 0.017827 -0.903962
vn -0.427241 0.017827 -0.903962
vn -0.427241 0.017827 -0.903962
vn -0.427241 0.017827 -0.903962
vn 0.000000 -0.000000 1.000000
vn 0.000000 -0.000000 1.000000
vn 0.000000 -0.000000 1.000000
vn 0.000000 -0.000000 1.000000
vn 0.000000 -0.019717 0.999806
vn 0.000000 -0.019717 0.999806
vn 0.000000 -0.019717 0.999806
vn 0.000000 -0.019717 0.999806
vn -0.191895 -0.019351 0.981225
vn -0.191895 -0.019351 0.981225
vn -0.191895 -0.019351 0.981225
vn -0.191895 -0.019351 0.981225
vn -0.261046 -0.019033 0.965139
vn -0.261046 -0.019033 0.965139
vn -0.261046 -0.019033 0.965139
vn -0.261046 -0.019033 0.965139
vn 0.256916 -0.019055 0.966246
vn 0.256916 -0.019055 0.966246
vn 0.256916 -0.019055 0.966246
vn 0.256916 -0.019055 0.966246
vn 0.187697 -0.019367 0.982036
vn 0.187697 -0.019367 0.982036
vn 0.187697 -0.019367 0.982036
vn 0.187697 -0.019367 0.982036
vn -0.382517 -0.018218 0.923769
vn -0.382517 -0.018218 0.923769
vn -0.382517 -0.018218 0.923769
vn -0.382517 -0.018218 0.923769
vn -0.488767 -0.017202 0.872245
vn -0.488767 -0.017202 0.872245
vn -0.488767 -0.017202 0.872245
vn -0.488767 -0.017202 0.872245
vn 0.557441 -0.016369 0.830055
vn 0.557441 -0.016369 0.830055
vn 0.557441 -0.016369 0.830055
vn 0.557441 -0.016369 0.830055
vn 0.427241 -0.017827 0.903962
vn 0.427241 -0.017827 0.903962
vn 0.427241 -0.017827 0.903962
vn 0.427241 -0.017827 0.903962
s 1
g polySurface3
usemtl lambert2SG
f 1/1/1 3/3/2 2/2/3
f 2/2/3 3/3/2 4/4/4
s 2
f 5/5/5 7/8/6 6/6/7
f 6/6/7 7/8/6 8/7/8
s 3
f 9/9/9 11/12/10 10/10/11
f 10/10/11 11/12/10 12/11/12
s 4
f 13/13/13 15/16/14 14/14/15
f 14/14/15 15/16/14 16/15/16
s 5
f 17/17/17 19/20/18 18/18/19
f 18/18/19 19/20/18 20/19/20
s 6
f 21/21/21 23/24/22 22/22/23
f 22/22/23 23/24/22 24/23/24
s 7
f 25/25/25 27/28/26 26/26/27
f 26/26/27 27/28/26 28/27/28
s 8
f 29/29/29 31/32/30 30/30/31
f 30/30/31 31/32/30 32/31/32
s 9
f 33/33/33 35/36/34 34/34/35
f 34/34/35 35/36/34 36/35/36
s 10
f 37/37/37 39/40/38 38/38/39
f 38/38/39 39/40/38 40/39/40
s 11
f 41/41/41 42/42/42 43/44/43
f 43/44/43 42/42/42 44/43/44
s 12
f 45/45/45 46/46/46 47/48/47
f 47/48/47 46/46/46 48/47/48
s 13
f 49/49/49 50/50/50 51/52/51
f 51/52/51 50/50/50 52/51/52
s 14
f 53/53/53 54/54/54 55/56/55
f 55/56/55 54/54/54 56/55/56
s 15
f 57/57/57 58/58/58 59/60/59
f 59/60/59 58/58/58 60/59/60
s 16
f 61/61/61 62/62/62 63/64/63
f 63/64/63 62/62/62 64/63/64
s 17
f 65/65/65 66/66/66 67/68/67
f 67/68/67 66/66/66 68/67/68
s 18
f 69/69/69 70/70/70 71/72/71
f 71/72/71 70/70/70 72/71/72
s 19
f 73/73/73 74/74/74 75/76/75
f 75/76/75 74/74/74 76/75/76
s 20
f 77/77/77 78/78/78 79/80/79
f 79/80/79 78/78/78 80/79/80
