# This file uses centimeters as units for non-parametric coordinates.

mtllib BigleafShrubbery_01_v02.mtl
g default
v -0.120624 -0.108874 -0.041413
v -0.053219 -0.108519 0.118881
v 0.953126 1.491565 0.489784
v 0.992832 1.422806 0.584208
v 1.075097 1.438698 0.460499
v 0.086433 -0.108570 -0.091128
v 2.758072 0.186478 4.336959
v 4.835016 0.334962 1.333579
v -0.734959 1.239617 2.006381
v 1.996267 1.388102 -1.303040
v 3.796544 0.260720 2.835269
v 0.917866 0.701452 3.373993
v 3.649091 0.849937 0.064573
v 0.630654 1.550653 0.351670
v 2.283478 1.130232 1.719283
v -0.073839 -0.215916 -0.215312
v 0.098626 -0.215560 -0.237521
v 0.675353 1.494620 -0.765316
v 0.808716 1.429760 -0.782489
v 0.681008 1.444751 -0.929881
v -0.066527 -0.215612 -0.428128
v 4.915483 0.186478 -1.501402
v 2.574867 0.334962 -4.304170
v 1.737669 1.239617 1.243477
v -0.723391 1.388102 -2.271497
v 3.745175 0.260720 -2.902786
v 3.496581 0.701452 0.015298
v 1.035521 0.849937 -3.499676
v 0.507139 1.550653 -0.514010
v 2.266051 1.130232 -1.742188
v -0.112803 -0.108874 5.506182
v -0.070899 -0.108519 5.674948
v 0.606536 1.453997 6.234699
v 0.633986 1.401840 6.345248
v 0.745566 1.413895 6.223418
v 0.099440 -0.108570 5.488961
v 2.318604 0.221464 10.199738
v 4.481883 0.401810 7.259715
v -1.126211 1.174812 7.757131
v 1.700176 1.369181 4.531040
v 3.400244 0.311637 8.729726
v 0.496693 0.685522 9.177901
v 3.323081 0.879891 5.951811
v 0.281267 1.508715 6.142442
v 1.901330 1.137132 7.562396
v -2.475033 1.139340 6.250684
v -1.167763 0.577291 8.365062
v 0.104990 1.652957 4.769312
v 1.418845 0.995741 7.378301
v -1.821398 0.858315 7.307873
v -1.286311 1.430046 5.396711
v 0.027544 0.772829 8.005701
v 0.794585 1.483384 6.103971
v -0.580473 1.339551 6.746370
v -0.616947 -0.126121 -1.223323
v -0.780514 -0.125709 -1.282344
v -1.698264 1.778922 -0.951556
v -1.827311 1.672243 -0.998122
v -1.780091 1.696899 -0.804829
v -0.720661 -0.125769 -1.037345
v -5.790214 0.250516 -2.238557
v -4.988292 0.422523 1.323873
v -1.709492 1.470483 -3.228792
v -1.125745 1.642489 1.022220
v -5.389253 0.336520 -0.457342
v -3.835191 0.847068 -2.939661
v -3.251444 1.019074 1.311351
v -1.417619 1.830790 -1.103286
v -3.543317 1.343770 -0.814155
v 0.199664 -0.129658 -1.160278
v 0.218003 -0.125141 -1.333140
v -0.258414 1.773489 -2.084227
v -0.244966 1.723274 -2.228506
v -0.427653 1.735323 -2.132460
v -0.005649 -0.124994 -1.216578
v -0.001688 0.384298 -6.367519
v -3.267573 0.561143 -4.734640
v 1.949605 1.482487 -2.611509
v -2.036946 1.670678 -1.026126
v -1.634630 0.472721 -5.551079
v 1.153462 0.920768 -4.621849
v -2.833089 1.108959 -3.036466
v -0.039810 1.850772 -1.811896
v -0.834033 1.425391 -3.818794
v -0.135431 -0.099612 -0.703676
v -0.267626 -0.099287 -0.615152
v -0.451331 1.361204 -0.026790
v -0.548186 1.282958 0.038068
v -0.392131 1.301043 0.103099
v -0.054631 -0.099334 -0.526395
v -3.565133 0.152088 2.292497
v -0.505126 0.287942 3.633475
v -2.081850 1.115638 -1.251557
v 1.367250 1.251491 0.623611
v -2.035129 0.220015 2.962986
v -3.021560 0.623255 0.471649
v 0.427540 0.759108 2.346816
v -0.357300 1.400214 -0.313973
v -1.297010 1.015558 1.409232
vt 0.268484 0.092726
vt 0.225351 0.119326
vt 0.225351 0.066127
vt 0.222126 0.092726
vt 0.178993 0.119326
vt 0.178993 0.066127
vt 0.097605 0.116895
vt 0.097605 0.076535
vt 0.558295 0.076535
vt 0.558295 0.116895
vt 0.097605 0.096449
vt 0.097605 0.077283
vt 0.558295 0.077283
vt 0.558295 0.096449
vt 0.558295 0.115615
vt 0.097605 0.115615
vt 0.816685 0.638866
vt 0.993856 0.638866
vt 0.993856 0.816038
vt 0.816685 0.816038
vt 0.993856 0.993209
vt 0.816685 0.993209
vt 0.639513 0.993209
vt 0.639513 0.816038
vt 0.639513 0.638866
vt 0.097605 0.096449
vt 0.097605 0.077283
vt 0.558295 0.077283
vt 0.558295 0.096449
vt 0.268484 0.092726
vt 0.225351 0.119326
vt 0.225351 0.066127
vt 0.558295 0.115615
vt 0.097605 0.115615
vt 0.222126 0.092726
vt 0.178993 0.119326
vt 0.178993 0.066127
vt 0.097605 0.116895
vt 0.097605 0.076535
vt 0.558295 0.076535
vt 0.558295 0.116895
vt 0.457518 0.638866
vt 0.634689 0.638866
vt 0.634689 0.816038
vt 0.457518 0.816038
vt 0.634689 0.993209
vt 0.457518 0.993209
vt 0.280346 0.993209
vt 0.280346 0.816038
vt 0.280346 0.638866
vt 0.097605 0.096449
vt 0.097605 0.077283
vt 0.558295 0.077283
vt 0.558295 0.096449
vt 0.268484 0.092726
vt 0.225351 0.119326
vt 0.225351 0.066127
vt 0.558295 0.115615
vt 0.097605 0.115615
vt 0.222126 0.092726
vt 0.178993 0.119326
vt 0.178993 0.066127
vt 0.097605 0.116895
vt 0.097605 0.076535
vt 0.558295 0.076535
vt 0.558295 0.116895
vt 0.816685 0.638866
vt 0.993856 0.638866
vt 0.993856 0.816038
vt 0.816685 0.816038
vt 0.993856 0.993209
vt 0.816685 0.993209
vt 0.639513 0.993209
vt 0.639513 0.816038
vt 0.639513 0.638866
vt 0.426437 0.258436
vt 0.603608 0.258436
vt 0.603608 0.435607
vt 0.426437 0.435607
vt 0.603608 0.612779
vt 0.426437 0.612779
vt 0.249265 0.612779
vt 0.249265 0.435607
vt 0.249265 0.258436
vt 0.097605 0.096449
vt 0.097605 0.077283
vt 0.558295 0.077283
vt 0.558295 0.096449
vt 0.268484 0.092726
vt 0.225351 0.119326
vt 0.225351 0.066127
vt 0.558295 0.115615
vt 0.097605 0.115615
vt 0.222126 0.092726
vt 0.178993 0.119326
vt 0.178993 0.066127
vt 0.097605 0.116895
vt 0.097605 0.076535
vt 0.558295 0.076535
vt 0.558295 0.116895
vt 0.423982 0.260890
vt 0.601154 0.260890
vt 0.601154 0.438062
vt 0.423982 0.438062
vt 0.601154 0.615233
vt 0.423982 0.615233
vt 0.246811 0.615233
vt 0.246811 0.438062
vt 0.246811 0.260890
vt 0.097605 0.096449
vt 0.097605 0.077283
vt 0.558295 0.077283
vt 0.558295 0.096449
vt 0.268484 0.092726
vt 0.225351 0.119326
vt 0.225351 0.066127
vt 0.558295 0.115615
vt 0.097605 0.115615
vt 0.222126 0.092726
vt 0.178993 0.119326
vt 0.178993 0.066127
vt 0.097605 0.116895
vt 0.097605 0.076535
vt 0.558295 0.076535
vt 0.558295 0.116895
vt 0.816685 0.638866
vt 0.993856 0.638866
vt 0.993856 0.816038
vt 0.816685 0.816038
vt 0.993856 0.993209
vt 0.816685 0.993209
vt 0.639513 0.993209
vt 0.639513 0.816038
vt 0.639513 0.638866
vt 0.097605 0.096449
vt 0.097605 0.077283
vt 0.558295 0.077283
vt 0.558295 0.096449
vt 0.268484 0.092726
vt 0.225351 0.119326
vt 0.225351 0.066127
vt 0.558295 0.115615
vt 0.097605 0.115615
vt 0.222126 0.092726
vt 0.178993 0.119326
vt 0.178993 0.066127
vt 0.097605 0.116895
vt 0.097605 0.076535
vt 0.558295 0.076535
vt 0.558295 0.116895
vt 0.800539 0.263418
vt 0.977710 0.263418
vt 0.977710 0.440589
vt 0.800539 0.440589
vt 0.977710 0.617761
vt 0.800539 0.617761
vt 0.623368 0.617761
vt 0.623368 0.440589
vt 0.623368 0.263418
vn -0.828010 0.440279 0.347208
vn -0.826773 0.438225 0.352712
vn -0.758149 0.349166 0.550721
vn -0.751288 0.341614 0.564682
vn 0.443616 0.802924 0.398143
vn 0.443616 0.802924 0.398143
vn 0.443616 0.802924 0.398143
vn -0.062111 0.370142 -0.926897
vn -0.207525 0.431180 -0.878076
vn -0.074582 0.375742 -0.923718
vn -0.211097 0.432559 -0.876545
vn 0.001817 -0.999997 0.001454
vn 0.001817 -0.999997 0.001454
vn 0.001817 -0.999997 0.001454
vn 0.670232 -0.593313 0.445834
vn 0.671279 -0.593265 0.444320
vn 0.700882 -0.590974 0.399392
vn 0.704927 -0.590509 0.392909
vn 0.323399 0.907370 0.268502
vn 0.317283 0.931368 0.178562
vn 0.192662 0.960158 0.202428
vn 0.285357 0.955589 0.073632
vn 0.230960 0.971055 0.060904
vn 0.126956 0.980793 0.148076
vn 0.060057 0.962453 0.264720
vn 0.078025 0.947553 0.309929
vn 0.195633 0.933333 0.301027
vn 0.122992 0.254554 0.959206
vn 0.126812 0.253221 0.959061
vn 0.221408 0.218634 0.950357
vn 0.227460 0.216315 0.949458
vn 0.396424 0.882305 -0.253745
vn 0.396424 0.882305 -0.253745
vn 0.396424 0.882305 -0.253745
vn -0.917917 0.369865 -0.143625
vn -0.919365 0.391792 -0.035600
vn -0.918469 0.371883 -0.134602
vn -0.919180 0.392614 -0.031021
vn 0.001887 -0.999997 -0.001363
vn 0.001887 -0.999997 -0.001363
vn 0.001887 -0.999997 -0.001363
vn 0.665577 -0.473895 -0.576568
vn 0.642919 -0.475809 -0.600218
vn 0.664311 -0.474017 -0.577927
vn 0.640119 -0.476007 -0.603046
vn 0.345032 0.907370 -0.240069
vn 0.256720 0.931368 -0.258163
vn 0.246482 0.960158 -0.131691
vn 0.147075 0.955589 -0.255380
vn 0.120299 0.971055 -0.206348
vn 0.176573 0.980794 -0.082862
vn 0.271149 0.962453 0.012725
vn 0.319513 0.947553 0.007466
vn 0.342301 0.933333 -0.108256
vn -0.920487 0.317442 0.227889
vn -0.920126 0.316104 0.231187
vn -0.901006 0.268602 0.340648
vn -0.899130 0.265046 0.348304
vn 0.285721 0.892129 0.349957
vn 0.285721 0.892129 0.349957
vn 0.285721 0.892129 0.349957
vn 0.046901 0.417804 -0.907326
vn -0.069328 0.447913 -0.891385
vn 0.036007 0.420895 -0.906394
vn -0.072916 0.448742 -0.890682
vn 0.001571 -0.999997 0.001716
vn 0.001571 -0.999997 0.001716
vn 0.001571 -0.999997 0.001716
vn 0.621394 -0.538338 0.569264
vn 0.643158 -0.540378 0.542531
vn 0.622373 -0.538442 0.568096
vn 0.646347 -0.540628 0.538477
vn 0.293077 0.916619 0.271874
vn 0.289126 0.939903 0.181626
vn 0.163177 0.965800 0.201505
vn 0.259835 0.962688 0.075611
vn 0.205494 0.976747 0.061134
vn 0.098678 0.984492 0.145044
vn 0.028720 0.965254 0.259732
vn 0.045657 0.951075 0.305567
vn 0.163790 0.939667 0.300332
vn -0.190845 0.912956 0.360679
vn -0.103282 0.913788 0.392841
vn -0.068630 0.958770 0.275773
vn 0.008131 0.913349 0.407098
vn 0.044508 0.929900 0.365109
vn 0.010517 0.970750 0.239863
vn -0.070327 0.988705 0.132348
vn -0.120912 0.984216 0.129226
vn -0.163220 0.957696 0.237021
vn 0.323282 0.310995 -0.893740
vn 0.316429 0.308281 -0.897126
vn 0.158380 0.242545 -0.957125
vn 0.149105 0.238510 -0.959625
vn -0.649091 0.758191 0.061856
vn -0.649091 0.758191 0.061856
vn -0.649091 0.758192 0.061856
vn 0.724435 0.344942 0.596832
vn 0.800905 0.390632 0.453826
vn 0.730594 0.348539 0.587157
vn 0.803662 0.392335 0.447438
vn -0.002666 -0.999996 0.000407
vn -0.002666 -0.999996 0.000407
vn -0.002666 -0.999996 0.000407
vn -0.831887 -0.516444 0.203100
vn -0.831312 -0.516157 0.206162
vn -0.819876 -0.510286 0.259636
vn -0.818586 -0.509608 0.264982
vn -0.468637 0.881145 0.062948
vn -0.393688 0.910531 0.126264
vn -0.318630 0.947866 0.005081
vn -0.282779 0.941629 0.182676
vn -0.230857 0.961746 0.147476
vn -0.224328 0.974482 -0.007819
vn -0.269308 0.950557 -0.154647
vn -0.320020 0.931352 -0.173699
vn -0.402122 0.913164 -0.066550
vn 0.953226 0.282113 0.108503
vn 0.953978 0.280905 0.104972
vn 0.968947 0.247067 0.009941
vn 0.969449 0.245241 0.005005
vn -0.115032 0.934789 -0.336062
vn -0.115032 0.934789 -0.336062
vn -0.115032 0.934789 -0.336062
vn -0.329488 0.355819 0.874546
vn -0.240564 0.376786 0.894518
vn -0.323654 0.357312 0.876114
vn -0.236888 0.377572 0.895167
vn -0.015104 -0.999502 -0.027723
vn -0.015104 -0.999502 -0.027723
vn -0.015104 -0.999502 -0.027723
vn -0.406011 -0.478759 -0.778424
vn -0.407480 -0.478587 -0.777763
vn -0.431362 -0.475591 -0.766642
vn -0.433790 -0.475265 -0.765473
vn -0.160412 0.894316 -0.417693
vn -0.203622 0.922086 -0.329084
vn -0.067529 0.956386 -0.284192
vn -0.231533 0.950512 -0.207170
vn -0.184694 0.968905 -0.164656
vn -0.032154 0.980266 -0.195052
vn 0.099372 0.956480 -0.274356
vn 0.105518 0.938550 -0.328618
vn -0.018356 0.923478 -0.383213
vn -0.537422 0.256089 -0.803490
vn -0.542353 0.254355 -0.800723
vn -0.647220 0.213407 -0.731822
vn -0.655394 0.209852 -0.725549
vn -0.306171 0.802925 0.511439
vn -0.306171 0.802925 0.511439
vn -0.306171 0.802925 0.511439
vn 0.906351 0.334485 -0.258163
vn 0.850607 0.361608 -0.381716
vn 0.901526 0.337503 -0.270818
vn 0.847790 0.362640 -0.386969
vn -0.001080 -0.999997 0.002061
vn -0.001080 -0.999997 0.002061
vn -0.001080 -0.999997 0.002061
vn -0.342151 -0.457354 0.820829
vn -0.339827 -0.456999 0.821991
vn -0.303591 -0.451107 0.839247
vn -0.298508 -0.450228 0.841539
vn -0.201855 0.907370 0.368693
vn -0.114736 0.931368 0.345527
vn -0.161944 0.960159 0.227750
vn -0.017826 0.955589 0.294164
vn -0.015712 0.971055 0.238337
vn -0.121129 0.980794 0.152879
vn -0.248395 0.962453 0.109468
vn -0.289345 0.947553 0.135734
vn -0.258164 0.933333 0.249481
s 1
g polySurface1
usemtl lambert2SG
f 1/11/1 2/12/2 3/14/3
f 3/14/3 2/12/2 4/13/4
s off
f 3/1/5 4/2/6 5/3/7
s 2
f 5/15/8 6/16/9 3/14/10
f 3/14/10 6/16/9 1/11/11
s off
f 1/4/12 6/5/13 2/6/14
s 3
f 2/7/15 6/8/16 4/10/17
f 4/10/17 6/8/16 5/9/18
s 4
f 11/17/19 8/18/20 15/20/21
f 15/20/21 8/18/20 13/19/22
f 13/19/22 10/21/23 15/20/21
f 15/20/21 10/21/23 14/22/24
f 14/22/24 9/23/25 15/20/21
f 15/20/21 9/23/25 12/24/26
f 12/24/26 7/25/27 15/20/21
f 15/20/21 7/25/27 11/17/19
s 5
f 16/26/28 17/27/29 18/29/30
f 18/29/30 17/27/29 19/28/31
s off
f 18/30/32 19/31/33 20/32/34
s 6
f 20/33/35 21/34/36 18/29/37
f 18/29/37 21/34/36 16/26/38
s off
f 16/35/39 21/36/40 17/37/41
s 7
f 21/39/42 20/40/43 17/38/44
f 17/38/44 20/40/43 19/41/45
s 8
f 26/42/46 23/43/47 30/45/48
f 30/45/48 23/43/47 28/44/49
f 28/44/49 25/46/50 30/45/48
f 30/45/48 25/46/50 29/47/51
f 29/47/51 24/48/52 30/45/48
f 30/45/48 24/48/52 27/49/53
f 27/49/53 22/50/54 30/45/48
f 30/45/48 22/50/54 26/42/46
s 9
f 31/51/55 32/52/56 33/54/57
f 33/54/57 32/52/56 34/53/58
s off
f 33/55/59 34/56/60 35/57/61
s 10
f 35/58/62 36/59/63 33/54/64
f 33/54/64 36/59/63 31/51/65
s off
f 31/60/66 36/61/67 32/62/68
s 11
f 36/64/69 35/65/70 32/63/71
f 32/63/71 35/65/70 34/66/72
s 12
f 41/67/73 38/68/74 45/70/75
f 45/70/75 38/68/74 43/69/76
f 43/69/76 40/71/77 45/70/75
f 45/70/75 40/71/77 44/72/78
f 44/72/78 39/73/79 45/70/75
f 45/70/75 39/73/79 42/74/80
f 42/74/80 37/75/81 45/70/75
f 45/70/75 37/75/81 41/67/73
s 13
f 50/76/82 47/77/83 54/79/84
f 54/79/84 47/77/83 52/78/85
f 52/78/85 49/80/86 54/79/84
f 54/79/84 49/80/86 53/81/87
f 53/81/87 48/82/88 54/79/84
f 54/79/84 48/82/88 51/83/89
f 51/83/89 46/84/90 54/79/84
f 54/79/84 46/84/90 50/76/82
s 14
f 55/85/91 56/86/92 57/88/93
f 57/88/93 56/86/92 58/87/94
s off
f 57/89/95 58/90/96 59/91/97
s 15
f 59/92/98 60/93/99 57/88/100
f 57/88/100 60/93/99 55/85/101
s off
f 55/94/102 60/95/103 56/96/104
s 16
f 56/97/105 60/98/106 58/100/107
f 58/100/107 60/98/106 59/99/108
s 17
f 65/101/109 62/102/110 69/104/111
f 69/104/111 62/102/110 67/103/112
f 67/103/112 64/105/113 69/104/111
f 69/104/111 64/105/113 68/106/114
f 68/106/114 63/107/115 69/104/111
f 69/104/111 63/107/115 66/108/116
f 66/108/116 61/109/117 69/104/111
f 69/104/111 61/109/117 65/101/109
s 18
f 70/110/118 71/111/119 72/113/120
f 72/113/120 71/111/119 73/112/121
s off
f 72/114/122 73/115/123 74/116/124
s 19
f 74/117/125 75/118/126 72/113/127
f 72/113/127 75/118/126 70/110/128
s off
f 70/119/129 75/120/130 71/121/131
s 20
f 71/122/132 75/123/133 73/125/134
f 73/125/134 75/123/133 74/124/135
s 21
f 80/126/136 77/127/137 84/129/138
f 84/129/138 77/127/137 82/128/139
f 82/128/139 79/130/140 84/129/138
f 84/129/138 79/130/140 83/131/141
f 83/131/141 78/132/142 84/129/138
f 84/129/138 78/132/142 81/133/143
f 81/133/143 76/134/144 84/129/138
f 84/129/138 76/134/144 80/126/136
s 22
f 85/135/145 86/136/146 87/138/147
f 87/138/147 86/136/146 88/137/148
s off
f 87/139/149 88/140/150 89/141/151
s 23
f 89/142/152 90/143/153 87/138/154
f 87/138/154 90/143/153 85/135/155
s off
f 85/144/156 90/145/157 86/146/158
s 24
f 86/147/159 90/148/160 88/150/161
f 88/150/161 90/148/160 89/149/162
s 25
f 95/151/163 92/152/164 99/154/165
f 99/154/165 92/152/164 97/153/166
f 97/153/166 94/155/167 99/154/165
f 99/154/165 94/155/167 98/156/168
f 98/156/168 93/157/169 99/154/165
f 99/154/165 93/157/169 96/158/170
f 96/158/170 91/159/171 99/154/165
f 99/154/165 91/159/171 95/151/163
