# This file uses centimeters as units for non-parametric coordinates.

mtllib Branches_Small_01.mtl
g default
v -12.627748 1.097346 1.504976
v -12.342089 0.652550 1.540980
v -4.029997 0.689716 -0.542864
v -3.754104 0.424832 -0.173355
v -3.762914 0.283143 -0.652815
v -12.335232 0.757293 1.052089
v 1.739193 3.526976 -5.440154
v 2.015083 3.262086 -5.070646
v 2.056589 3.131906 -5.579179
v 8.867896 5.977870 -6.953375
v -3.261335 0.235447 0.949972
v -2.932630 0.416413 0.573113
v -2.909889 0.575877 1.046497
v 2.121768 -0.851305 2.259354
v 2.450471 -0.670335 1.882496
v 2.519632 -0.532181 2.385892
v 8.481326 -4.590494 4.686234
v 8.634116 0.963696 -3.260559
v 8.734519 0.859136 -2.795441
v 2.053405 0.259594 1.286750
v 2.153812 0.155033 1.751866
v 1.925040 0.532667 1.629809
v 8.505759 1.236771 -2.917497
v -5.338940 -0.081122 1.056677
v -5.238530 -0.185675 1.521796
v -5.520371 0.189774 1.410870
v -11.596734 -2.465275 3.239970
v -10.033921 -3.346839 4.637893
v -10.199815 -3.126886 4.236086
v -4.371487 0.858050 0.799246
v -4.537377 1.077997 0.397439
v -4.353530 1.311468 0.746049
v -10.015969 -2.893421 4.584697
v 2.895490 2.259289 0.590900
v 2.729593 2.479242 0.189093
v 2.963231 2.731646 0.527330
v 8.946656 3.615395 -2.749052
v 8.758883 -3.181780 0.012188
v 8.808163 -2.842053 0.357881
v 2.150406 1.272165 0.997050
v 2.199685 1.611886 1.342742
v 2.102569 1.717667 0.907753
v 8.711048 -2.736272 -0.077109
v -4.975048 1.865877 -0.924205
v -4.925763 2.205606 -0.578510
v -5.074337 2.326849 -1.021144
v -11.725407 3.419764 0.352129
v 8.222029 3.725667 -4.297873
v 7.953366 4.128670 -4.350415
v 0.689635 2.839400 -1.660239
v 0.420975 3.242396 -1.712774
v 0.307547 2.845141 -1.910660
v 7.839936 3.731418 -4.548299
v -3.832748 -1.712857 2.033111
v -4.101408 -1.309856 1.980566
v -4.256939 -1.731918 1.806290
v -9.123924 -3.081706 6.476152
vt 0.878997 0.059430
vt 0.842179 0.059473
vt 0.841006 0.357932
vt 0.880413 0.357588
vt 0.861150 0.059529
vt 0.861625 0.358216
vt 0.841773 0.585956
vt 0.880225 0.583798
vt 0.861694 0.585345
vt 0.859992 0.902375
vt 0.878997 0.059430
vt 0.842179 0.059473
vt 0.841006 0.357932
vt 0.880413 0.357588
vt 0.861150 0.059529
vt 0.861625 0.358216
vt 0.841773 0.585956
vt 0.880225 0.583798
vt 0.861694 0.585345
vt 0.859992 0.902375
vt 0.878997 0.059430
vt 0.842179 0.059473
vt 0.841006 0.357932
vt 0.880413 0.357588
vt 0.861150 0.059529
vt 0.861625 0.358216
vt 0.841773 0.585956
vt 0.880225 0.583798
vt 0.861694 0.585345
vt 0.859992 0.902375
vt 0.878997 0.059430
vt 0.842179 0.059473
vt 0.841006 0.357932
vt 0.880413 0.357588
vt 0.861150 0.059529
vt 0.861625 0.358216
vt 0.841773 0.585956
vt 0.880225 0.583798
vt 0.861694 0.585345
vt 0.859992 0.902375
vt 0.878997 0.059430
vt 0.842179 0.059473
vt 0.841006 0.357932
vt 0.880413 0.357588
vt 0.861150 0.059529
vt 0.861625 0.358216
vt 0.841773 0.585956
vt 0.880225 0.583798
vt 0.861694 0.585345
vt 0.859992 0.902375
vt 0.878997 0.059430
vt 0.842179 0.059473
vt 0.841006 0.357932
vt 0.880413 0.357588
vt 0.861150 0.059529
vt 0.861625 0.358216
vt 0.841773 0.585956
vt 0.880225 0.583798
vt 0.861694 0.585345
vt 0.859992 0.902375
vn 0.026546 0.963301 -0.267107
vn 0.122278 -0.253861 0.959480
vn -0.219382 0.951999 -0.213469
vn 0.357608 -0.272231 0.893312
vn 0.122278 -0.253861 0.959480
vn -0.132822 -0.660257 -0.739202
vn 0.357608 -0.272231 0.893312
vn -0.134291 -0.770414 -0.623241
vn 0.026546 0.963301 -0.267107
vn -0.219382 0.951999 -0.213469
vn -0.132822 -0.660257 -0.739202
vn -0.134291 -0.770414 -0.623241
vn 0.550846 0.007496 0.834573
vn -0.570047 0.768925 -0.289484
vn 0.550846 0.007496 0.834573
vn 0.041282 -0.806620 -0.589627
vn -0.570047 0.768925 -0.289484
vn 0.041282 -0.806620 -0.589627
vn 0.514006 0.300952 -0.803260
vn 0.514006 0.300952 -0.803260
vn 0.514006 0.300952 -0.803260
vn 0.026546 0.963301 -0.267107
vn 0.154622 0.421537 -0.893532
vn -0.132822 -0.660257 -0.739202
vn -0.122768 -0.940922 -0.315586
vn 0.154622 0.421537 -0.893532
vn 0.026546 0.963301 -0.267107
vn -0.013063 0.524764 0.851148
vn 0.122278 -0.253861 0.959480
vn -0.132822 -0.660257 -0.739202
vn -0.122768 -0.940922 -0.315586
vn 0.122278 -0.253861 0.959480
vn -0.013063 0.524764 0.851148
vn -0.376612 -0.823927 0.423449
vn 0.262938 0.047245 -0.963655
vn 0.262938 0.047245 -0.963655
vn 0.129006 0.788922 0.600800
vn -0.376612 -0.823927 0.423449
vn 0.129006 0.788922 0.600800
vn 0.486673 0.010935 0.873516
vn 0.486673 0.010935 0.873516
vn 0.486673 0.010935 0.873516
vn -0.501009 -0.370045 -0.782341
vn 0.505782 -0.575228 0.642882
vn -0.322848 -0.299583 -0.897786
vn 0.349696 -0.606020 0.714459
vn 0.505782 -0.575228 0.642882
vn -0.051048 0.995466 0.080263
vn 0.349696 -0.606020 0.714459
vn 0.011434 0.976285 0.216188
vn -0.501009 -0.370045 -0.782341
vn -0.322848 -0.299583 -0.897786
vn -0.051048 0.995466 0.080263
vn 0.011434 0.976285 0.216188
vn 0.118779 -0.678919 0.724541
vn 0.002344 -0.228643 -0.973508
vn 0.118779 -0.678919 0.724541
vn -0.155791 0.952443 0.261879
vn 0.002344 -0.228643 -0.973508
vn -0.155791 0.952443 0.261879
vn -0.961748 0.167004 -0.217141
vn -0.961748 0.167004 -0.217141
vn -0.961748 0.167004 -0.217141
vn 0.688515 -0.666764 0.285259
vn -0.516371 -0.082756 -0.852357
vn 0.525587 -0.739855 0.419967
vn -0.373162 -0.017458 -0.927602
vn -0.516371 -0.082756 -0.852357
vn -0.124447 0.755153 0.643628
vn -0.373162 -0.017458 -0.927602
vn -0.206887 0.819254 0.534809
vn 0.688515 -0.666764 0.285259
vn 0.525587 -0.739855 0.419967
vn -0.124447 0.755153 0.643628
vn -0.206887 0.819254 0.534809
vn -0.139367 -0.004968 -0.990228
vn 0.212690 -0.821247 0.529450
vn -0.139367 -0.004968 -0.990228
vn -0.049242 0.874439 0.482629
vn 0.212690 -0.821247 0.529450
vn -0.049242 0.874439 0.482629
vn 0.945903 0.201024 0.254669
vn 0.945903 0.201024 0.254669
vn 0.945903 0.201024 0.254669
vn -0.567319 -0.791436 -0.227549
vn 0.283867 0.214535 0.934556
vn -0.372749 -0.880612 -0.292543
vn 0.123847 0.281944 0.951404
vn 0.283867 0.214535 0.934556
vn 0.256738 0.555773 -0.790697
vn 0.123847 0.281944 0.951404
vn 0.306156 0.656242 -0.689648
vn -0.567319 -0.791436 -0.227549
vn -0.372749 -0.880612 -0.292543
vn 0.256738 0.555773 -0.790697
vn 0.306156 0.656242 -0.689648
vn -0.118485 0.285464 0.951037
vn -0.039449 -0.954168 -0.296658
vn -0.118485 0.285464 0.951037
vn 0.138467 0.706008 -0.694535
vn -0.039449 -0.954168 -0.296658
vn 0.138467 0.706008 -0.694535
vn -0.856086 0.016842 -0.516559
vn -0.856086 0.016842 -0.516559
vn -0.856086 0.016842 -0.516559
vn 0.322668 -0.623838 0.711837
vn -0.069310 0.988524 0.134225
vn 0.512923 -0.619460 0.594289
vn -0.218558 0.951479 0.216611
vn -0.069310 0.988524 0.134225
vn -0.246362 -0.454202 -0.856158
vn -0.218558 0.951479 0.216611
vn -0.305341 -0.321353 -0.896381
vn 0.322668 -0.623838 0.711837
vn 0.512923 -0.619460 0.594289
vn -0.246362 -0.454202 -0.856158
vn -0.305341 -0.321353 -0.896381
vn -0.363204 0.849669 0.382290
vn 0.767704 -0.499539 0.401362
vn -0.363204 0.849669 0.382290
vn -0.443373 -0.384800 -0.809537
vn 0.767704 -0.499539 0.401362
vn -0.443373 -0.384800 -0.809537
vn -0.480326 -0.809918 0.336630
vn -0.480326 -0.809918 0.336630
vn -0.480326 -0.809918 0.336630
s 1
g polySurface14
usemtl lambert2SG
f 1/1/1 2/2/2 3/4/3
f 3/4/3 2/2/2 4/3/4
s 2
f 2/2/5 6/5/6 4/3/7
f 4/3/7 6/5/6 5/6/8
s 3
f 1/1/9 3/4/10 6/5/11
f 6/5/11 3/4/10 5/6/12
s 1
f 4/3/4 8/7/13 3/4/3
f 3/4/3 8/7/13 7/8/14
s 2
f 4/3/7 5/6/8 8/7/15
f 8/7/15 5/6/8 9/9/16
s 3
f 3/4/10 7/8/17 5/6/12
f 5/6/12 7/8/17 9/9/18
s 1
f 7/8/14 8/7/13 10/10/19
s 2
f 8/7/15 9/9/16 10/10/20
s 3
f 9/9/18 7/8/17 10/10/21
s 4
f 1/12/22 12/13/23 6/11/24
f 6/11/24 12/13/23 11/14/25
s 5
f 12/13/26 1/12/27 13/16/28
f 1/12/27 2/15/29 13/16/28
s 6
f 6/11/30 11/14/31 2/15/32
f 2/15/32 11/14/31 13/16/33
s 4
f 11/14/25 12/13/23 14/18/34
f 14/18/34 12/13/23 15/17/35
s 5
f 12/13/26 13/16/28 15/17/36
f 15/17/36 13/16/28 16/19/37
s 6
f 11/14/31 14/18/38 13/16/33
f 13/16/33 14/18/38 16/19/39
s 4
f 14/18/34 15/17/35 17/20/40
s 5
f 15/17/36 16/19/37 17/20/41
s 6
f 16/19/39 14/18/38 17/20/42
s 7
f 18/21/43 19/22/44 20/24/45
f 20/24/45 19/22/44 21/23/46
s 8
f 19/22/47 23/25/48 21/23/49
f 21/23/49 23/25/48 22/26/50
s 9
f 18/21/51 20/24/52 23/25/53
f 23/25/53 20/24/52 22/26/54
s 7
f 21/23/46 25/27/55 20/24/45
f 20/24/45 25/27/55 24/28/56
s 8
f 21/23/49 22/26/50 25/27/57
f 25/27/57 22/26/50 26/29/58
s 9
f 20/24/52 24/28/59 22/26/54
f 22/26/54 24/28/59 26/29/60
s 7
f 24/28/56 25/27/55 27/30/61
s 8
f 25/27/57 26/29/58 27/30/62
s 9
f 26/29/60 24/28/59 27/30/63
s 10
f 28/31/64 29/32/65 30/34/66
f 30/34/66 29/32/65 31/33/67
s 11
f 29/32/68 33/35/69 31/33/70
f 31/33/70 33/35/69 32/36/71
s 12
f 28/31/72 30/34/73 33/35/74
f 33/35/74 30/34/73 32/36/75
s 10
f 31/33/67 35/37/76 30/34/66
f 30/34/66 35/37/76 34/38/77
s 11
f 31/33/70 32/36/71 35/37/78
f 35/37/78 32/36/71 36/39/79
s 12
f 30/34/73 34/38/80 32/36/75
f 32/36/75 34/38/80 36/39/81
s 10
f 34/38/77 35/37/76 37/40/82
s 11
f 35/37/78 36/39/79 37/40/83
s 12
f 36/39/81 34/38/80 37/40/84
s 13
f 38/41/85 39/42/86 40/44/87
f 40/44/87 39/42/86 41/43/88
s 14
f 39/42/89 43/45/90 41/43/91
f 41/43/91 43/45/90 42/46/92
s 15
f 38/41/93 40/44/94 43/45/95
f 43/45/95 40/44/94 42/46/96
s 13
f 41/43/88 45/47/97 40/44/87
f 40/44/87 45/47/97 44/48/98
s 14
f 41/43/91 42/46/92 45/47/99
f 45/47/99 42/46/92 46/49/100
s 15
f 40/44/94 44/48/101 42/46/96
f 42/46/96 44/48/101 46/49/102
s 13
f 44/48/98 45/47/97 47/50/103
s 14
f 45/47/99 46/49/100 47/50/104
s 15
f 46/49/102 44/48/101 47/50/105
s 16
f 48/51/106 49/52/107 50/54/108
f 50/54/108 49/52/107 51/53/109
s 17
f 49/52/110 53/55/111 51/53/112
f 51/53/112 53/55/111 52/56/113
s 18
f 48/51/114 50/54/115 53/55/116
f 53/55/116 50/54/115 52/56/117
s 16
f 51/53/109 55/57/118 50/54/108
f 50/54/108 55/57/118 54/58/119
s 17
f 51/53/112 52/56/113 55/57/120
f 55/57/120 52/56/113 56/59/121
s 18
f 50/54/115 54/58/122 52/56/117
f 52/56/117 54/58/122 56/59/123
s 16
f 54/58/119 55/57/118 57/60/124
s 17
f 55/57/120 56/59/121 57/60/125
s 18
f 56/59/123 54/58/122 57/60/126
