# This file uses centimeters as units for non-parametric coordinates.

mtllib LeafPlant_01.mtl
g default
v -0.219358 -0.227132 -0.075311
v -0.096780 -0.226390 0.216189
v 1.733289 3.111685 0.890687
v 1.805496 2.968240 1.062401
v 1.955097 3.001393 0.837431
v 0.157181 -0.226498 -0.165720
v 5.015639 0.389028 7.886893
v 8.792626 0.698794 2.425155
v -1.336545 2.586073 3.648665
v 3.630273 2.895840 -2.369619
v 6.904132 0.543911 5.156024
v 1.669167 1.463361 6.135711
v 6.635984 1.773129 0.117427
v 1.146864 3.234952 0.639523
v 4.152575 2.357875 3.126569
v -0.134279 -0.450440 -0.391552
v 0.179355 -0.449698 -0.431938
v 1.228149 3.118057 -1.391751
v 1.470674 2.982748 -1.422980
v 1.238433 3.014021 -1.691017
v -0.120982 -0.449806 -0.778563
v 8.938956 0.389028 -2.730345
v 4.682476 0.698794 -7.827265
v 3.160004 2.586073 2.261301
v -1.315508 2.895840 -4.130788
v 6.810716 0.543911 -5.278805
v 6.358640 1.463361 0.027821
v 1.883127 1.773129 -6.364268
v 0.922248 3.234952 -0.934743
v 4.120883 2.357875 -3.168223
v -0.205136 -0.227132 10.013162
v -0.128931 -0.226390 10.320067
v 1.103005 3.033310 11.337992
v 1.152923 2.924501 11.539029
v 1.355835 2.949650 11.317478
v 0.180835 -0.226498 9.981844
v 4.216454 0.462016 18.548537
v 8.150442 0.838252 13.202015
v -2.048050 2.450877 14.106581
v 3.091823 2.856368 8.239836
v 6.183448 0.650134 15.875275
v 0.903252 1.430127 16.690296
v 6.043124 1.835618 10.823551
v 0.511493 3.147462 11.170220
v 3.457628 2.372270 13.752449
v -4.500924 2.376876 11.367061
v -2.123614 1.204337 15.212122
v 0.190928 3.448379 8.673141
v 2.580214 2.077301 13.417668
v -3.312269 1.790606 13.289592
v -2.339196 2.983343 9.814086
v 0.050090 1.612266 14.558614
v 1.444977 3.094617 11.100260
v -1.055608 2.794554 12.268482
v -1.121937 -0.263112 -2.224650
v -1.419388 -0.262253 -2.331982
v -3.088345 3.711165 -1.730434
v -3.323022 3.488613 -1.815115
v -3.237150 3.540050 -1.463607
v -1.310545 -0.262378 -1.886444
v -10.529683 0.522624 -4.070885
v -9.071362 0.881461 2.407504
v -3.108765 3.067703 -5.871657
v -2.047201 3.426541 1.858938
v -9.800523 0.702043 -0.831690
v -6.974413 1.767142 -5.345863
v -5.912851 2.125980 2.384732
v -2.577983 3.819371 -2.006360
v -6.443632 2.803357 -1.480566
v 0.363094 -0.270491 -2.110002
v 0.396445 -0.261067 -2.424356
v -0.469934 3.699830 -3.790230
v -0.445479 3.595073 -4.052607
v -0.777700 3.620208 -3.877944
v -0.010273 -0.260761 -2.212384
v -0.003069 0.801718 -11.579529
v -5.942181 1.170649 -8.610088
v 3.545417 3.092745 -4.749109
v -3.704249 3.485347 -1.866042
v -2.972625 0.986184 -10.094809
v 2.097606 1.920895 -8.404975
v -5.152060 2.313497 -5.521908
v -0.072395 3.861056 -3.294989
v -1.516715 2.973633 -6.944595
v -0.246286 -0.207810 -1.279657
v -0.486687 -0.207132 -1.118674
v -0.820759 2.839727 -0.048719
v -0.996893 2.676491 0.069229
v -0.713102 2.714218 0.187488
v -0.099348 -0.207230 -0.957265
v -6.483303 0.317285 4.168976
v -0.918587 0.600700 6.607586
v -3.785909 2.327429 -2.275994
v 2.486386 2.610845 1.134056
v -3.700945 0.458992 5.388281
v -5.494799 1.300226 0.857707
v 0.777495 1.583642 4.267757
v -0.649761 2.921109 -0.570969
v -2.358652 2.118644 2.562732
vt 0.268484 0.092726
vt 0.225351 0.119326
vt 0.225351 0.066127
vt 0.222126 0.092726
vt 0.178993 0.119326
vt 0.178993 0.066127
vt 0.097605 0.116895
vt 0.097605 0.076535
vt 0.558295 0.076535
vt 0.558295 0.116895
vt 0.097605 0.096449
vt 0.097605 0.077283
vt 0.558295 0.077283
vt 0.558295 0.096449
vt 0.558295 0.115615
vt 0.097605 0.115615
vt 0.816685 0.638866
vt 0.993856 0.638866
vt 0.993856 0.816038
vt 0.816685 0.816038
vt 0.993856 0.993209
vt 0.816685 0.993209
vt 0.639513 0.993209
vt 0.639513 0.816038
vt 0.639513 0.638866
vt 0.097605 0.096449
vt 0.097605 0.077283
vt 0.558295 0.077283
vt 0.558295 0.096449
vt 0.268484 0.092726
vt 0.225351 0.119326
vt 0.225351 0.066127
vt 0.558295 0.115615
vt 0.097605 0.115615
vt 0.222126 0.092726
vt 0.178993 0.119326
vt 0.178993 0.066127
vt 0.097605 0.116895
vt 0.097605 0.076535
vt 0.558295 0.076535
vt 0.558295 0.116895
vt 0.457518 0.638866
vt 0.634689 0.638866
vt 0.634689 0.816038
vt 0.457518 0.816038
vt 0.634689 0.993209
vt 0.457518 0.993209
vt 0.280346 0.993209
vt 0.280346 0.816038
vt 0.280346 0.638866
vt 0.097605 0.096449
vt 0.097605 0.077283
vt 0.558295 0.077283
vt 0.558295 0.096449
vt 0.268484 0.092726
vt 0.225351 0.119326
vt 0.225351 0.066127
vt 0.558295 0.115615
vt 0.097605 0.115615
vt 0.222126 0.092726
vt 0.178993 0.119326
vt 0.178993 0.066127
vt 0.097605 0.116895
vt 0.097605 0.076535
vt 0.558295 0.076535
vt 0.558295 0.116895
vt 0.816685 0.638866
vt 0.993856 0.638866
vt 0.993856 0.816038
vt 0.816685 0.816038
vt 0.993856 0.993209
vt 0.816685 0.993209
vt 0.639513 0.993209
vt 0.639513 0.816038
vt 0.639513 0.638866
vt 0.426437 0.258436
vt 0.603608 0.258436
vt 0.603608 0.435607
vt 0.426437 0.435607
vt 0.603608 0.612779
vt 0.426437 0.612779
vt 0.249265 0.612779
vt 0.249265 0.435607
vt 0.249265 0.258436
vt 0.097605 0.096449
vt 0.097605 0.077283
vt 0.558295 0.077283
vt 0.558295 0.096449
vt 0.268484 0.092726
vt 0.225351 0.119326
vt 0.225351 0.066127
vt 0.558295 0.115615
vt 0.097605 0.115615
vt 0.222126 0.092726
vt 0.178993 0.119326
vt 0.178993 0.066127
vt 0.097605 0.116895
vt 0.097605 0.076535
vt 0.558295 0.076535
vt 0.558295 0.116895
vt 0.423982 0.260890
vt 0.601154 0.260890
vt 0.601154 0.438062
vt 0.423982 0.438062
vt 0.601154 0.615233
vt 0.423982 0.615233
vt 0.246811 0.615233
vt 0.246811 0.438062
vt 0.246811 0.260890
vt 0.097605 0.096449
vt 0.097605 0.077283
vt 0.558295 0.077283
vt 0.558295 0.096449
vt 0.268484 0.092726
vt 0.225351 0.119326
vt 0.225351 0.066127
vt 0.558295 0.115615
vt 0.097605 0.115615
vt 0.222126 0.092726
vt 0.178993 0.119326
vt 0.178993 0.066127
vt 0.097605 0.116895
vt 0.097605 0.076535
vt 0.558295 0.076535
vt 0.558295 0.116895
vt 0.816685 0.638866
vt 0.993856 0.638866
vt 0.993856 0.816038
vt 0.816685 0.816038
vt 0.993856 0.993209
vt 0.816685 0.993209
vt 0.639513 0.993209
vt 0.639513 0.816038
vt 0.639513 0.638866
vt 0.097605 0.096449
vt 0.097605 0.077283
vt 0.558295 0.077283
vt 0.558295 0.096449
vt 0.268484 0.092726
vt 0.225351 0.119326
vt 0.225351 0.066127
vt 0.558295 0.115615
vt 0.097605 0.115615
vt 0.222126 0.092726
vt 0.178993 0.119326
vt 0.178993 0.066127
vt 0.097605 0.116895
vt 0.097605 0.076535
vt 0.558295 0.076535
vt 0.558295 0.116895
vt 0.800539 0.263418
vt 0.977710 0.263418
vt 0.977710 0.440589
vt 0.800539 0.440589
vt 0.977710 0.617761
vt 0.800539 0.617761
vt 0.623368 0.617761
vt 0.623368 0.440589
vt 0.623368 0.263418
vn -0.731143 0.481910 -0.482901
vn -0.050386 -0.297245 0.953471
vn -0.648229 0.596075 -0.473807
vn 0.132832 -0.284726 0.949361
vn 0.762601 -0.187599 -0.619069
vn 0.722286 -0.281079 -0.631900
vn 0.361055 0.883052 0.299765
vn 0.356689 0.912067 0.202254
vn 0.217741 0.948775 0.228941
vn 0.323126 0.942666 0.083490
vn 0.262508 0.962441 0.069257
vn 0.144876 0.974956 0.168737
vn 0.068107 0.951442 0.300200
vn 0.088289 0.932550 0.350079
vn 0.221554 0.914650 0.338126
vn -0.735352 0.364076 0.571582
vn 0.915615 -0.333419 0.224681
vn -0.656336 0.486579 0.576597
vn 0.951449 -0.264873 0.156802
vn -0.239686 -0.118590 -0.963580
vn -0.369764 -0.160099 -0.915228
vn 0.385207 0.883052 -0.268022
vn 0.290063 0.912067 -0.289823
vn 0.278723 0.948775 -0.148790
vn 0.166650 0.942666 -0.289152
vn 0.136765 0.962441 -0.234526
vn 0.201265 0.974956 -0.094622
vn 0.307490 0.951442 0.014429
vn 0.360945 0.932550 0.008283
vn 0.384970 0.914650 -0.123343
vn -0.630620 0.430143 -0.645984
vn -0.143530 -0.357602 0.922778
vn -0.625284 0.546893 -0.556712
vn -0.014952 -0.316564 0.948453
vn 0.936143 -0.184426 -0.299370
vn 0.853587 -0.178649 -0.489361
vn 0.328031 0.894314 0.304300
vn 0.325792 0.922713 0.206059
vn 0.184715 0.955913 0.228279
vn 0.294832 0.951681 0.085891
vn 0.233979 0.969745 0.069633
vn 0.112779 0.979748 0.165451
vn 0.032599 0.954991 0.294837
vn 0.051783 0.936986 0.345507
vn 0.185826 0.922595 0.338063
vn -0.213392 0.889843 0.403290
vn -0.115174 0.890845 0.439466
vn -0.077497 0.946953 0.311887
vn 0.008732 0.890254 0.455380
vn 0.049821 0.910445 0.410619
vn 0.011739 0.962152 0.272261
vn -0.080373 0.985215 0.151299
vn -0.137988 0.979389 0.147498
vn -0.185160 0.944928 0.269864
vn 0.897956 0.397901 -0.188015
vn -0.686947 -0.320052 -0.652434
vn 0.833657 0.522636 -0.178512
vn -0.734178 -0.233344 -0.637600
vn -0.043948 -0.082755 0.995600
vn -0.031121 -0.198422 0.979622
vn -0.519569 0.851573 0.069789
vn -0.441579 0.886286 0.139658
vn -0.358752 0.933416 0.005563
vn -0.319073 0.925086 0.205932
vn -0.261672 0.950581 0.167101
vn -0.255290 0.966826 -0.008660
vn -0.304330 0.936400 -0.174755
vn -0.359989 0.912320 -0.195142
vn -0.450718 0.889725 -0.072410
vn 0.396771 0.369185 0.840402
vn 0.434374 -0.314027 -0.844219
vn 0.412322 0.478030 0.775550
vn 0.285089 -0.277545 -0.917438
vn -0.985379 -0.166488 -0.036206
vn -0.969847 -0.180788 0.163442
vn -0.178463 0.867300 -0.464695
vn -0.227379 0.900504 -0.370664
vn -0.076082 0.944086 -0.320801
vn -0.261744 0.936240 -0.234403
vn -0.209776 0.959689 -0.187057
vn -0.036876 0.974279 -0.222308
vn 0.112512 0.943850 -0.310626
vn 0.118693 0.921274 -0.370360
vn -0.022461 0.902445 -0.430218
vn 0.396927 0.337066 -0.853719
vn -0.928312 -0.313422 0.200007
vn 0.356021 0.480525 -0.801464
vn -0.944431 -0.215318 0.248372
vn 0.736524 -0.057447 0.673967
vn 0.761981 -0.165138 0.626190
vn -0.225359 0.883052 0.411623
vn -0.130472 0.912067 0.388730
vn -0.183184 0.948775 0.257428
vn -0.020295 0.942666 0.333120
vn -0.017892 0.962441 0.270900
vn -0.137990 0.974956 0.174413
vn -0.281687 0.951442 0.124141
vn -0.326798 0.932550 0.153470
vn -0.289635 0.914650 0.282006
s 1
g polySurface1
usemtl lambert2SG
f 1/11/1 2/12/2 3/14/3
f 3/14/3 2/12/2 4/13/4
f 3/1/3 4/2/4 5/3/5
f 5/15/5 6/16/6 3/14/3
f 3/14/3 6/16/6 1/11/1
f 1/4/1 6/5/6 2/6/2
f 2/7/2 6/8/6 4/10/4
f 4/10/4 6/8/6 5/9/5
s 2
f 11/17/7 8/18/8 15/20/9
f 15/20/9 8/18/8 13/19/10
f 13/19/10 10/21/11 15/20/9
f 15/20/9 10/21/11 14/22/12
f 14/22/12 9/23/13 15/20/9
f 15/20/9 9/23/13 12/24/14
f 12/24/14 7/25/15 15/20/9
f 15/20/9 7/25/15 11/17/7
s 3
f 16/26/16 17/27/17 18/29/18
f 18/29/18 17/27/17 19/28/19
f 18/30/18 19/31/19 20/32/20
f 20/33/20 21/34/21 18/29/18
f 18/29/18 21/34/21 16/26/16
f 16/35/16 21/36/21 17/37/17
f 21/39/21 20/40/20 17/38/17
f 17/38/17 20/40/20 19/41/19
s 4
f 26/42/22 23/43/23 30/45/24
f 30/45/24 23/43/23 28/44/25
f 28/44/25 25/46/26 30/45/24
f 30/45/24 25/46/26 29/47/27
f 29/47/27 24/48/28 30/45/24
f 30/45/24 24/48/28 27/49/29
f 27/49/29 22/50/30 30/45/24
f 30/45/24 22/50/30 26/42/22
s 5
f 31/51/31 32/52/32 33/54/33
f 33/54/33 32/52/32 34/53/34
f 33/55/33 34/56/34 35/57/35
f 35/58/35 36/59/36 33/54/33
f 33/54/33 36/59/36 31/51/31
f 31/60/31 36/61/36 32/62/32
f 36/64/36 35/65/35 32/63/32
f 32/63/32 35/65/35 34/66/34
s 6
f 41/67/37 38/68/38 45/70/39
f 45/70/39 38/68/38 43/69/40
f 43/69/40 40/71/41 45/70/39
f 45/70/39 40/71/41 44/72/42
f 44/72/42 39/73/43 45/70/39
f 45/70/39 39/73/43 42/74/44
f 42/74/44 37/75/45 45/70/39
f 45/70/39 37/75/45 41/67/37
s 7
f 50/76/46 47/77/47 54/79/48
f 54/79/48 47/77/47 52/78/49
f 52/78/49 49/80/50 54/79/48
f 54/79/48 49/80/50 53/81/51
f 53/81/51 48/82/52 54/79/48
f 54/79/48 48/82/52 51/83/53
f 51/83/53 46/84/54 54/79/48
f 54/79/48 46/84/54 50/76/46
s 8
f 55/85/55 56/86/56 57/88/57
f 57/88/57 56/86/56 58/87/58
f 57/89/57 58/90/58 59/91/59
f 59/92/59 60/93/60 57/88/57
f 57/88/57 60/93/60 55/85/55
f 55/94/55 60/95/60 56/96/56
f 56/97/56 60/98/60 58/100/58
f 58/100/58 60/98/60 59/99/59
s 9
f 65/101/61 62/102/62 69/104/63
f 69/104/63 62/102/62 67/103/64
f 67/103/64 64/105/65 69/104/63
f 69/104/63 64/105/65 68/106/66
f 68/106/66 63/107/67 69/104/63
f 69/104/63 63/107/67 66/108/68
f 66/108/68 61/109/69 69/104/63
f 69/104/63 61/109/69 65/101/61
s 10
f 70/110/70 71/111/71 72/113/72
f 72/113/72 71/111/71 73/112/73
f 72/114/72 73/115/73 74/116/74
f 74/117/74 75/118/75 72/113/72
f 72/113/72 75/118/75 70/110/70
f 70/119/70 75/120/75 71/121/71
f 71/122/71 75/123/75 73/125/73
f 73/125/73 75/123/75 74/124/74
s 11
f 80/126/76 77/127/77 84/129/78
f 84/129/78 77/127/77 82/128/79
f 82/128/79 79/130/80 84/129/78
f 84/129/78 79/130/80 83/131/81
f 83/131/81 78/132/82 84/129/78
f 84/129/78 78/132/82 81/133/83
f 81/133/83 76/134/84 84/129/78
f 84/129/78 76/134/84 80/126/76
s 12
f 85/135/85 86/136/86 87/138/87
f 87/138/87 86/136/86 88/137/88
f 87/139/87 88/140/88 89/141/89
f 89/142/89 90/143/90 87/138/87
f 87/138/87 90/143/90 85/135/85
f 85/144/85 90/145/90 86/146/86
f 86/147/86 90/148/90 88/150/88
f 88/150/88 90/148/90 89/149/89
s 13
f 95/151/91 92/152/92 99/154/93
f 99/154/93 92/152/92 97/153/94
f 97/153/94 94/155/95 99/154/93
f 99/154/93 94/155/95 98/156/96
f 98/156/96 93/157/97 99/154/93
f 99/154/93 93/157/97 96/158/98
f 96/158/98 91/159/99 99/154/93
f 99/154/93 91/159/99 95/151/91
