# This file uses centimeters as units for non-parametric coordinates.

mtllib Machete_v01.mtl
v -0.007832 0.476662 13.385046
v -0.007835 -0.653435 2.063083
v -0.006237 0.485240 13.206352
v 0.033646 0.488369 2.075119
v -0.009426 0.485240 13.206353
v -0.049309 0.488369 2.075119
v -0.005882 0.490047 12.900201
v -0.009781 0.490047 12.900200
v -0.007832 0.287001 13.349128
v -0.004961 0.480426 12.646012
v -0.010702 0.480426 12.646011
v -0.007832 0.153195 13.297026
v -0.004648 0.480443 12.414930
v -0.011015 0.480443 12.414931
v -0.007832 0.036765 13.241802
v -0.003994 0.480443 12.052905
v -0.011667 0.480443 12.052904
v -0.007832 -0.065168 13.193738
v -0.003578 0.480443 11.721689
v -0.012085 0.480443 11.721689
v -0.007832 -0.164064 13.130164
v -0.003466 0.480443 11.467500
v -0.012197 0.480443 11.467500
v -0.007832 -0.246105 13.063946
v -0.003036 0.480443 11.143987
v -0.012626 0.480443 11.143987
v -0.007832 -0.326656 12.987654
v 0.003124 0.480443 8.199398
v -0.018785 0.480443 8.199399
v -0.007832 -0.653435 11.462360
v -0.001563 0.480443 10.790253
v -0.014100 0.480443 10.790253
v -0.007832 -0.391245 12.899532
v -0.000734 0.480443 10.400851
v -0.014928 0.480443 10.400851
v -0.007832 -0.485584 12.666854
v -0.000073 0.480443 9.775958
v -0.015589 0.480443 9.775958
v -0.007832 -0.561195 12.408666
v 0.001664 0.480443 9.056143
v -0.017327 0.480443 9.056142
v -0.007832 -0.632493 11.988377
v 0.016731 0.488396 2.216873
v -0.032394 0.488396 2.216873
v -0.007828 -0.653435 2.216945
v -0.168396 -0.653435 2.063082
v 0.152733 -0.653435 2.063083
v -0.168396 0.503428 2.051046
v 0.152733 0.503428 2.051046
v -0.168396 -0.274358 -2.182574
v 0.152740 -0.274358 -2.182574
v -0.168396 0.302636 -2.182574
v 0.152740 0.302636 -2.182574
v 0.152733 0.543107 1.922395
v -0.168396 0.543107 1.922395
v -0.168396 -0.625882 1.922395
v 0.152733 -0.625882 1.922395
v 0.152733 0.546330 1.688053
v -0.168396 0.546330 1.688053
v -0.168396 -0.547161 1.688053
v 0.152733 -0.547161 1.688053
v 0.152740 0.503038 -1.989858
v -0.168396 0.503038 -1.989858
v -0.168396 -0.612207 -1.989858
v 0.152740 -0.612207 -1.989858
v 0.085129 0.480196 -1.774157
v -0.100800 0.480196 -1.774156
v -0.100800 -0.536623 -1.774156
v 0.085129 -0.536623 -1.774157
v 0.085136 0.475628 1.360320
v -0.100800 0.475628 1.360319
v -0.100800 -0.488120 1.360319
v 0.085136 -0.488120 1.360320
v 0.152740 0.421077 -2.085821
v -0.168396 0.421077 -2.085820
v -0.168396 -0.475143 -2.085820
v 0.152740 -0.475143 -2.085821
v 0.101730 0.511173 1.525085
v -0.117386 0.511173 1.525085
v -0.117386 -0.517802 1.525085
v 0.101730 -0.517802 1.525085
v 0.101776 0.491700 -1.882786
v -0.117447 0.491700 -1.882786
v -0.117447 -0.574688 -1.882786
v 0.101776 -0.574688 -1.882786
v 0.127380 -0.240943 -1.774156
v 0.127373 -0.240955 1.360320
v -0.143036 -0.240946 -1.774156
v -0.143036 -0.240948 1.360319
v 0.127380 0.218751 -1.774156
v 0.127373 0.218763 1.360320
v -0.143036 0.218741 -1.774156
v -0.143036 0.218762 1.360319
vt 0.013185 0.236076
vt 0.016251 0.202037
vt 0.028439 0.237616
vt 0.054574 0.238478
vt 0.030323 0.316198
vt 0.049306 0.316147
vt 0.030323 0.316663
vt 0.049306 0.316714
vt 0.054574 0.238478
vt 0.028439 0.237616
vt 0.010955 0.657671
vt 0.177759 0.657671
vt 0.010955 0.870876
vt 0.192781 0.870876
vt 0.019243 0.316430
vt 0.065067 0.316012
vt 0.065067 0.316849
vt 0.020699 0.178023
vt 0.076273 0.236752
vt 0.076273 0.236752
vt 0.079395 0.315967
vt 0.079395 0.316894
vt 0.025413 0.157126
vt 0.095999 0.236755
vt 0.095999 0.236755
vt 0.101843 0.315871
vt 0.101843 0.316989
vt 0.029516 0.138832
vt 0.126904 0.236755
vt 0.126904 0.236755
vt 0.122380 0.315811
vt 0.122380 0.317050
vt 0.034943 0.121083
vt 0.155178 0.236755
vt 0.155178 0.236755
vt 0.138141 0.315794
vt 0.138141 0.317067
vt 0.040596 0.106359
vt 0.176877 0.236755
vt 0.176877 0.236755
vt 0.158200 0.315732
vt 0.158200 0.317129
vt 0.047109 0.091902
vt 0.204494 0.236755
vt 0.204494 0.236755
vt 0.180133 0.315517
vt 0.180133 0.317344
vt 0.054631 0.080310
vt 0.234691 0.236755
vt 0.234691 0.236755
vt 0.340779 0.314834
vt 0.711724 0.312851
vt 0.340779 0.318027
vt 0.711724 0.320010
vt 0.177316 0.033254
vt 0.455860 0.236755
vt 0.966555 0.033254
vt 0.966561 0.238182
vt 0.455860 0.236755
vt 0.966561 0.238182
vt 0.204278 0.315396
vt 0.204278 0.317465
vt 0.074494 0.063379
vt 0.267932 0.236755
vt 0.267932 0.236755
vt 0.243024 0.315300
vt 0.243024 0.317561
vt 0.096534 0.049809
vt 0.321277 0.236755
vt 0.321277 0.236755
vt 0.287657 0.315047
vt 0.287657 0.317814
vt 0.132412 0.037013
vt 0.382724 0.236755
vt 0.382724 0.236755
vt 0.134878 0.677819
vt 0.180030 0.704358
vt 0.134878 0.893760
vt 0.180030 0.877890
vt 0.177759 0.914641
vt 0.010955 0.914641
vt 0.390236 0.698753
vt 0.390236 0.886985
vt 0.418546 0.740923
vt 0.418546 0.862109
vt 0.010955 0.583479
vt 0.177759 0.583479
vt 0.225553 0.743235
vt 0.225553 0.854956
vt 0.084501 0.891564
vt 0.084501 0.685083
vt 0.033389 0.749705
vt 0.033389 0.838714
vt 0.789728 0.834101
vt 0.789728 0.902911
vt 0.119352 0.834100
vt 0.119352 0.901575
vt 0.119352 0.725892
vt 0.789728 0.725891
vt 0.033389 0.889337
vt 0.033389 0.692454
vt 0.789728 0.667931
vt 0.119352 0.667807
vt 0.824967 0.669440
vt 0.824967 0.901123
vt 0.859821 0.676214
vt 0.859821 0.894701
vt 0.824967 0.940627
vt 0.789728 0.938838
vt 0.789728 0.638285
vt 0.119352 0.638409
vt 0.824967 0.636776
vt 0.119352 0.937081
vt 0.177759 0.944927
vt 0.010955 0.944927
vt 0.362157 0.669965
vt 0.362157 0.904199
vt 0.010955 0.532832
vt 0.177759 0.532832
vt 0.789728 0.974146
vt 0.096119 0.636200
vt 0.096119 0.664290
vt 0.073220 0.629170
vt 0.073220 0.664602
vt 0.330828 0.901818
vt 0.330828 0.677845
vt 0.073220 0.902469
vt 0.096119 0.902511
vt 0.073220 0.944729
vt 0.096119 0.938543
vt 0.299043 0.844489
vt 0.299043 0.747941
vt 0.119352 0.581229
vt 0.789728 0.581230
vt 0.789728 0.471210
vt 0.119352 0.471211
vt 0.119352 0.974146
vt 0.824967 0.405093
vt 0.299043 0.899402
vt 0.299043 0.685840
vt 0.717502 0.321972
vt 0.717502 0.309885
vt 0.978663 0.033254
vt 0.978663 0.238177
vt 0.978663 0.238177
vt 0.742050 0.674389
vt 0.740558 0.657036
vt 0.742050 0.627595
vt 0.740558 0.644948
vt 0.839087 0.258865
vt 0.813344 0.258865
vt 0.847668 0.379917
vt 0.813344 0.381514
vt 0.859821 0.629981
vt 0.909940 0.676214
vt 0.909940 0.629984
vt 0.859821 0.412146
vt 0.859821 0.947680
vt 0.937455 0.676215
vt 0.937455 0.630022
vt 0.909940 0.944187
vt 0.909940 0.896930
vt 0.909940 0.408654
vt 0.880156 0.258865
vt 0.871575 0.379917
vt 0.905899 0.258865
vt 0.905899 0.381514
vt 0.937455 0.920875
vt 0.937455 0.898584
vt 0.937455 0.407632
vt 0.937455 0.943166
vn 0.999960 -0.001675 0.008843
vn 0.999989 -0.002530 0.004037
vn 0.999977 -0.006235 0.002511
vn 0.999992 -0.002005 0.003430
vn 0.000015 0.999877 0.015698
vn 0.000015 0.999877 0.015698
vn 0.000015 0.999877 0.015698
vn -0.000012 0.999877 0.015698
vn -0.000012 0.999877 0.015698
vn -0.000012 0.999877 0.015698
vn -0.999992 -0.002005 0.003430
vn -0.999989 -0.002530 0.004037
vn -0.999977 -0.006235 0.002511
vn -0.999960 -0.001675 0.008843
vn 0.501545 -0.106797 -0.858514
vn -0.501548 -0.106797 -0.858513
vn 0.361088 0.128502 -0.923636
vn -0.361087 0.128503 -0.923636
vn 0.000026 0.998850 0.047950
vn 0.000026 0.998850 0.047950
vn 0.000026 0.998850 0.047950
vn 0.000030 0.999285 -0.037821
vn 0.000030 0.999285 -0.037821
vn 0.000030 0.999285 -0.037821
vn 0.000000 0.999285 -0.037821
vn 0.000000 0.999285 -0.037821
vn 0.000000 0.999285 -0.037821
vn -0.999992 -0.001584 0.003615
vn -0.999990 -0.004047 0.001797
vn 0.999992 -0.001584 0.003615
vn 0.999990 -0.004047 0.001797
vn -0.000000 1.000000 0.000070
vn -0.000000 1.000000 0.000070
vn -0.000000 1.000000 0.000070
vn 0.000000 1.000000 0.000070
vn 0.000000 1.000000 0.000070
vn 0.000000 1.000000 0.000070
vn -0.999993 -0.001701 0.003189
vn -0.999993 -0.003347 0.001790
vn 0.999994 -0.001701 0.003189
vn 0.999993 -0.003340 0.001795
vn 0.000000 1.000000 0.000000
vn 0.000000 1.000000 0.000000
vn 0.000000 1.000000 0.000000
vn 0.000000 1.000000 0.000000
vn 0.000000 1.000000 0.000000
vn 0.000000 1.000000 0.000000
vn -0.999995 -0.001710 0.002696
vn -0.999992 -0.003720 0.001361
vn 0.999995 -0.001709 0.002697
vn 0.999992 -0.003729 0.001357
vn 0.000000 1.000000 0.000000
vn 0.000000 1.000000 0.000000
vn 0.000000 1.000000 0.000000
vn 0.000000 1.000000 0.000000
vn 0.000000 1.000000 0.000000
vn 0.000000 1.000000 0.000000
vn -0.999996 -0.001819 0.002343
vn -0.999988 -0.004793 0.000601
vn 0.999996 -0.001820 0.002343
vn 0.999988 -0.004795 0.000600
vn 0.000000 1.000000 0.000000
vn 0.000000 1.000000 0.000000
vn 0.000000 1.000000 0.000000
vn 0.000000 1.000000 -0.000000
vn 0.000000 1.000000 -0.000000
vn 0.000000 1.000000 -0.000000
vn -0.999996 -0.001873 0.002032
vn -0.999994 -0.003114 0.001243
vn 0.999996 -0.001873 0.002032
vn 0.999994 -0.003109 0.001246
vn 0.000000 1.000000 0.000000
vn 0.000000 1.000000 0.000000
vn 0.000000 1.000000 0.000000
vn 0.000000 1.000000 0.000000
vn 0.000000 1.000000 0.000000
vn 0.000000 1.000000 0.000000
vn -0.999996 -0.001996 0.001789
vn -0.999990 0.002179 0.003817
vn 0.999996 -0.001996 0.001790
vn 0.999990 0.002176 0.003816
vn 0.000000 1.000000 0.000000
vn 0.000000 1.000000 0.000000
vn 0.000000 1.000000 0.000000
vn 0.000000 1.000000 0.000000
vn 0.000000 1.000000 0.000000
vn 0.000000 1.000000 0.000000
vn -0.999995 -0.002679 0.001635
vn -0.999996 -0.001843 0.002322
vn 0.999995 -0.002679 0.001635
vn 0.999996 -0.001844 0.002322
vn 0.000000 0.999999 0.001329
vn 0.000000 0.999999 0.001329
vn 0.000000 0.999999 0.001329
vn 0.000000 0.999999 0.001329
vn 0.000000 0.999999 0.001329
vn 0.000000 0.999999 0.001329
vn -0.999960 -0.008940 0.000132
vn -0.999949 -0.010132 0.000118
vn -0.999801 -0.019842 0.002022
vn -0.999756 -0.021510 0.004961
vn 0.999960 -0.008940 0.000132
vn 0.999801 -0.019836 0.002020
vn 0.999949 -0.010131 0.000119
vn 0.999757 -0.021503 0.004961
vn 0.000000 1.000000 0.000000
vn 0.000000 1.000000 0.000000
vn 0.000000 1.000000 0.000000
vn 0.000000 1.000000 0.000000
vn 0.000000 1.000000 0.000000
vn 0.000000 1.000000 0.000000
vn -0.999992 -0.003772 0.001440
vn -0.999989 -0.004576 0.001146
vn 0.999992 -0.003772 0.001440
vn 0.999989 -0.004576 0.001146
vn 0.000000 1.000000 -0.000000
vn 0.000000 1.000000 -0.000000
vn 0.000000 1.000000 -0.000000
vn 0.000000 1.000000 0.000000
vn 0.000000 1.000000 0.000000
vn 0.000000 1.000000 0.000000
vn -0.999989 -0.004582 0.001170
vn -0.999994 -0.002501 0.002243
vn 0.999989 -0.004582 0.001170
vn 0.999994 -0.002503 0.002243
vn 0.000000 1.000000 0.000000
vn 0.000000 1.000000 0.000000
vn 0.000000 1.000000 0.000000
vn 0.000000 1.000000 -0.000000
vn 0.000000 1.000000 -0.000000
vn 0.000000 1.000000 -0.000000
vn -0.999985 -0.005423 0.000872
vn -0.999988 -0.004559 0.001748
vn 0.999985 -0.005423 0.000872
vn 0.999988 -0.004555 0.001750
vn 0.000000 1.000000 0.000000
vn 0.000000 1.000000 0.000000
vn 0.000000 1.000000 0.000000
vn 0.000000 1.000000 0.000000
vn 0.000000 1.000000 0.000000
vn 0.000000 1.000000 0.000000
vn 0.924132 -0.375468 0.070745
vn 0.843198 -0.266371 -0.466973
vn 0.929541 0.330369 0.163737
vn 0.861908 0.351471 -0.365490
vn -0.861906 0.351473 -0.365492
vn -0.843198 -0.266371 -0.466973
vn 0.867629 0.359272 0.343721
vn 0.860995 -0.303036 0.408480
vn 0.998507 -0.051857 -0.017195
vn 0.998362 0.056622 -0.008245
vn 0.998338 -0.057136 0.007492
vn 0.741508 -0.670940 -0.002320
vn 0.788940 -0.614050 0.022731
vn 0.998461 0.053138 0.015895
vn 0.751213 0.660016 0.007608
vn 0.747137 0.664569 -0.011542
vn 0.931841 0.267294 -0.245409
vn 0.906265 -0.334270 -0.258740
vn 0.957628 0.257598 -0.128807
vn 0.958549 -0.235567 -0.160287
vn -0.919964 -0.297595 -0.255156
vn -0.740014 -0.672585 -0.002857
vn -0.748618 0.662911 -0.010919
vn -0.752489 0.658564 0.007353
vn -0.920220 0.300881 -0.250331
vn -0.790074 -0.612619 0.021966
vn -0.939263 0.302533 0.162043
vn -0.936697 -0.345104 0.059182
vn -0.998338 -0.057136 0.007492
vn -0.891362 0.293922 0.345084
vn -0.883585 -0.248162 0.397105
vn -0.998363 0.056601 -0.008242
vn -0.998508 -0.051840 -0.017186
vn -0.998461 0.053137 0.015899
vn 0.000000 1.000000 -0.000195
vn 0.000000 1.000000 -0.000195
vn 0.000000 1.000000 -0.000195
vn -0.722954 0.074739 0.686842
vn 0.000000 1.000000 -0.000195
vn 0.173552 0.098180 0.979919
vn -0.442485 -0.201610 0.873820
vn 0.993919 -0.022719 0.107741
vn 0.999341 -0.036305 -0.000050
vn -0.814753 0.172805 0.553458
vn 0.815327 0.171565 0.552999
vn 0.627413 -0.106445 0.771377
vn -0.952627 0.274013 -0.131983
vn 0.956027 0.291252 0.034423
vn -0.956027 0.291252 0.034423
vn -0.962333 -0.221131 -0.158166
vn -0.962228 -0.261251 -0.076588
vn 0.962228 -0.261251 -0.076588
vn -0.627429 -0.106443 0.771364
s 1
g machete_v02
usemtl lambert13SG
f 1/1/1 9/2/2 3/3/3
f 3/3/3 9/2/2 7/4/4
s off
f 3/5/5 7/6/6 5/7/7
f 5/7/8 7/6/9 8/8/10
s 2
f 8/9/11 9/2/12 5/10/13
f 5/10/13 9/2/12 1/1/14
f 51/11/15 50/12/16 53/13/17
f 53/13/17 50/12/16 52/14/18
s off
f 1/15/19 3/5/20 5/7/21
f 7/6/22 10/16/23 8/8/24
f 8/8/25 10/16/26 11/17/27
s 2
f 9/2/12 8/9/11 12/18/28
f 12/18/28 8/9/11 11/19/29
s 1
f 9/2/2 12/18/30 7/4/4
f 7/4/4 12/18/30 10/20/31
s off
f 10/16/32 13/21/33 11/17/34
f 11/17/35 13/21/36 14/22/37
s 2
f 12/18/28 11/19/29 15/23/38
f 15/23/38 11/19/29 14/24/39
s 1
f 12/18/30 15/23/40 10/20/31
f 10/20/31 15/23/40 13/25/41
s off
f 13/21/42 16/26/43 14/22/44
f 14/22/45 16/26/46 17/27/47
s 2
f 15/23/38 14/24/39 18/28/48
f 18/28/48 14/24/39 17/29/49
s 1
f 15/23/40 18/28/50 13/25/41
f 13/25/41 18/28/50 16/30/51
s off
f 16/26/52 19/31/53 17/27/54
f 17/27/55 19/31/56 20/32/57
s 2
f 18/28/48 17/29/49 21/33/58
f 21/33/58 17/29/49 20/34/59
s 1
f 18/28/50 21/33/60 16/30/51
f 16/30/51 21/33/60 19/35/61
s off
f 19/31/62 22/36/63 20/32/64
f 20/32/65 22/36/66 23/37/67
s 2
f 21/33/58 20/34/59 24/38/68
f 24/38/68 20/34/59 23/39/69
s 1
f 21/33/60 24/38/70 19/35/61
f 19/35/61 24/38/70 22/40/71
s off
f 22/36/72 25/41/73 23/37/74
f 23/37/75 25/41/76 26/42/77
s 2
f 24/38/68 23/39/69 27/43/78
f 27/43/78 23/39/69 26/44/79
s 1
f 24/38/70 27/43/80 22/40/71
f 22/40/71 27/43/80 25/45/81
s off
f 25/41/82 31/46/83 26/42/84
f 26/42/85 31/46/86 32/47/87
s 2
f 27/43/78 26/44/79 33/48/88
f 33/48/88 26/44/79 32/49/89
s 1
f 27/43/80 33/48/90 25/45/81
f 25/45/81 33/48/90 31/50/91
s off
f 28/51/92 43/52/93 29/53/94
f 29/53/95 43/52/96 44/54/97
s 2
f 30/55/98 29/56/99 45/57/100
f 45/57/100 29/56/99 44/58/101
s 1
f 30/55/102 45/57/103 28/59/104
f 28/59/104 45/57/103 43/60/105
s off
f 31/46/106 34/61/107 32/47/108
f 32/47/109 34/61/110 35/62/111
s 2
f 33/48/88 32/49/89 36/63/112
f 36/63/112 32/49/89 35/64/113
s 1
f 33/48/90 36/63/114 31/50/91
f 31/50/91 36/63/114 34/65/115
s off
f 34/61/116 37/66/117 35/62/118
f 35/62/119 37/66/120 38/67/121
s 2
f 36/63/112 35/64/113 39/68/122
f 39/68/122 35/64/113 38/69/123
s 1
f 36/63/114 39/68/124 34/65/115
f 34/65/115 39/68/124 37/70/125
s off
f 37/66/126 40/71/127 38/67/128
f 38/67/129 40/71/130 41/72/131
s 2
f 39/68/122 38/69/123 42/73/132
f 42/73/132 38/69/123 41/74/133
s 1
f 39/68/124 42/73/134 37/70/125
f 37/70/125 42/73/134 40/75/135
s off
f 40/71/136 28/51/137 41/72/138
f 41/72/139 28/51/140 29/53/141
s 2
f 42/73/132 41/74/133 30/55/98
f 30/55/98 41/74/133 29/56/99
s 1
f 42/73/134 30/55/102 40/75/135
f 40/75/135 30/55/102 28/59/104
s 2
f 65/76/142 77/77/143 62/78/144
f 62/78/144 77/77/143 74/79/145
f 75/80/146 74/81/145 52/14/18
f 52/14/18 74/81/145 53/13/17
f 76/82/147 75/83/146 50/84/16
f 50/84/16 75/83/146 52/85/18
f 77/86/143 76/87/147 51/11/15
f 51/11/15 76/87/147 50/12/16
f 77/77/143 51/88/15 74/79/145
f 74/79/145 51/88/15 53/89/17
f 82/90/148 85/91/149 62/78/144
f 62/78/144 85/91/149 65/76/142
f 85/91/149 82/90/148 86/92/150
f 86/92/150 82/90/148 90/93/151
f 87/94/152 73/95/153 86/96/150
f 86/96/150 73/95/153 69/97/154
f 90/98/151 91/99/155 86/96/150
f 86/96/150 91/99/155 87/94/152
f 90/93/151 82/90/148 66/100/156
f 85/91/149 86/92/150 69/101/154
f 70/102/157 91/99/155 66/103/156
f 66/103/156 91/99/155 90/98/151
f 78/104/158 91/99/155 70/102/157
f 87/94/152 81/105/159 73/95/153
f 58/106/160 61/107/161 78/104/158
f 78/104/158 61/107/161 81/105/159
f 80/108/162 72/109/163 81/105/159
f 81/105/159 72/109/163 73/95/153
f 78/104/158 81/105/159 91/99/155
f 91/99/155 81/105/159 87/94/152
f 71/110/164 70/102/157 67/111/165
f 67/111/165 70/102/157 66/103/156
f 71/110/164 79/112/166 70/102/157
f 70/102/157 79/112/166 78/104/158
f 72/109/163 68/113/167 73/95/153
f 73/95/153 68/113/167 69/97/154
f 75/80/146 63/114/168 74/81/145
f 74/81/145 63/114/168 62/115/144
f 64/116/169 63/117/168 76/82/147
f 76/82/147 63/117/168 75/83/146
f 77/86/143 65/118/142 76/87/147
f 76/87/147 65/118/142 64/119/169
f 80/108/162 89/120/170 72/109/163
f 83/121/171 82/122/148 63/123/168
f 63/123/168 82/122/148 62/124/144
f 67/111/165 66/103/156 83/121/171
f 83/121/171 66/103/156 82/122/148
f 83/125/171 63/117/168 84/126/172
f 84/126/172 63/117/168 64/116/169
f 65/127/142 85/128/149 64/129/169
f 64/129/169 85/128/149 84/130/172
f 68/113/167 84/130/172 69/97/154
f 69/97/154 84/130/172 85/128/149
f 92/131/173 83/125/171 88/132/174
f 88/132/174 83/125/171 84/126/172
f 92/133/173 93/134/175 67/111/165
f 67/111/165 93/134/175 71/110/164
f 93/134/175 92/133/173 89/135/170
f 89/135/170 92/133/173 88/136/174
f 93/134/175 79/112/166 71/110/164
f 89/120/170 88/137/174 72/109/163
f 72/109/163 88/137/174 68/113/167
f 79/112/166 93/134/175 80/138/162
f 80/138/162 93/134/175 89/135/170
f 83/125/171 92/131/173 67/139/165
f 88/132/174 84/126/172 68/140/167
s off
f 44/54/176 43/52/177 6/141/178
s 2
f 6/141/179 43/52/180 4/142/181
f 2/143/182 45/57/100 6/144/179
f 6/144/179 45/57/100 44/58/101
s 1
f 43/60/105 45/57/103 4/145/183
f 4/145/183 45/57/103 2/143/184
s 2
f 48/146/185 6/147/179 49/148/186
f 49/148/186 6/147/179 4/149/181
f 2/150/182 47/151/187 4/152/181
f 4/152/181 47/151/187 49/153/186
f 58/106/160 59/154/188 54/155/189
f 54/155/189 59/154/188 55/156/190
f 59/154/188 79/112/166 60/157/191
f 60/157/191 79/112/166 80/138/162
f 59/154/188 58/106/160 79/112/166
f 79/112/166 58/106/160 78/104/158
f 61/107/161 60/158/191 81/105/159
f 81/105/159 60/158/191 80/108/162
f 54/155/189 55/156/190 49/159/186
f 49/159/186 55/156/190 48/160/185
f 56/161/192 60/158/191 57/162/193
f 57/162/193 60/158/191 61/107/161
f 56/163/192 55/156/190 60/157/191
f 60/157/191 55/156/190 59/154/188
f 57/162/193 61/107/161 54/155/189
f 54/155/189 61/107/161 58/106/160
f 2/164/182 6/165/179 46/166/194
f 46/166/194 6/165/179 48/167/185
f 2/168/182 57/162/193 47/169/187
f 46/170/194 48/160/185 56/163/192
f 56/163/192 48/160/185 55/156/190
f 47/169/187 57/162/193 49/159/186
f 49/159/186 57/162/193 54/155/189
f 2/168/182 56/161/192 57/162/193
f 56/161/192 2/168/182 46/171/194
