# This file uses centimeters as units for non-parametric coordinates.

mtllib NMTest.mtl
g default
v -1.187490 1.384384 2.889332
v 5.029286 1.384384 2.889332
v -1.187490 6.252942 2.889332
v 5.029286 6.252942 2.889332
v -1.187490 6.252942 -2.339164
v 5.029286 6.252942 -2.339164
v -1.187490 1.384384 -2.339164
v 5.029286 1.384384 -2.339164
vt -0.003968 -1.014467
vt 1.003968 -1.014467
vt 1.003968 -0.006530
vt -0.003968 -0.006530
vt -0.003968 -0.006530
vt 1.003968 -0.006530
vt 1.003968 1.001406
vt -0.003968 1.001406
vt -0.003968 1.001406
vt 1.003968 1.001406
vt 1.003968 2.009343
vt -0.003968 2.009343
vt -0.003968 2.009343
vt 1.003968 2.009343
vt 1.003968 3.017279
vt -0.003968 3.017279
vt 1.003968 -1.014467
vt 2.011905 -1.014467
vt 2.011905 -0.006530
vt 1.003968 -0.006530
vt -1.011905 -1.014467
vt -0.003968 -1.014467
vt -0.003968 -0.006530
vt -1.011905 -0.006530
vn 0.000000 0.000000 1.000000
vn 0.000000 0.000000 1.000000
vn 0.000000 0.000000 1.000000
vn 0.000000 0.000000 1.000000
vn 0.000000 1.000000 0.000000
vn 0.000000 1.000000 0.000000
vn 0.000000 1.000000 0.000000
vn 0.000000 1.000000 0.000000
vn 0.000000 0.000000 -1.000000
vn 0.000000 0.000000 -1.000000
vn 0.000000 0.000000 -1.000000
vn 0.000000 0.000000 -1.000000
vn 0.000000 -1.000000 0.000000
vn 0.000000 -1.000000 0.000000
vn 0.000000 -1.000000 0.000000
vn 0.000000 -1.000000 0.000000
vn 1.000000 0.000000 0.000000
vn 1.000000 0.000000 0.000000
vn 1.000000 0.000000 0.000000
vn 1.000000 0.000000 0.000000
vn -1.000000 0.000000 0.000000
vn -1.000000 0.000000 0.000000
vn -1.000000 0.000000 0.000000
vn -1.000000 0.000000 0.000000
s 1
g pCube1
usemtl lambert2SG
f 1/1/1 2/2/2 3/4/3
f 3/4/3 2/2/2 4/3/4
s 2
f 3/5/5 4/6/6 5/8/7
f 5/8/7 4/6/6 6/7/8
s 3
f 5/9/9 6/10/10 7/12/11
f 7/12/11 6/10/10 8/11/12
s 4
f 7/13/13 8/14/14 1/16/15
f 1/16/15 8/14/14 2/15/16
s 5
f 2/17/17 8/18/18 4/20/19
f 4/20/19 8/18/18 6/19/20
s 6
f 7/21/21 1/22/22 5/24/23
f 5/24/23 1/22/22 3/23/24
