# This file uses centimeters as units for non-parametric coordinates.

mtllib Stone_02.mtl
g default
v -3.121274 2.201299 -1.304130
v 0.256608 2.171383 -1.283161
v -3.121274 4.368931 -3.814135
v 0.256608 3.489585 -4.129976
v -3.121274 1.951816 -6.074656
v -0.067848 0.013011 -5.962455
v -3.121274 -0.167581 -3.585787
v 1.089561 -0.076371 -3.577297
v -1.432333 2.244958 -0.469288
v -1.432333 4.492503 -3.857795
v -1.432333 1.682083 -6.909499
v -1.157280 -0.185357 -3.719876
v -3.712403 3.770810 -2.163540
v 0.169918 3.606884 -2.222542
v -3.712403 3.602408 -5.383646
v 0.847737 2.493729 -5.713426
v -3.712403 0.382303 -5.215245
v 0.754596 -0.035055 -5.081552
v -3.712403 0.550704 -1.995140
v 0.976932 0.052672 -1.995140
v -1.432333 4.335562 -1.654924
v -1.432333 3.825458 -5.631312
v -1.432333 -0.176068 -5.723863
v -1.432333 0.042087 -1.430388
v 1.607760 2.007872 -3.755075
v -4.691890 1.851009 -3.689393
v -2.546923 2.433539 -1.447512
v -5.848946 3.499973 0.550031
v -0.290091 3.914748 1.409730
v -3.804407 3.941561 3.624274
v -0.231411 0.503610 3.345364
v -4.127369 -0.576167 4.777658
v -2.455695 -0.932566 0.516556
v -6.504931 0.530259 3.043294
v -4.591056 3.317092 -1.274697
v -1.850962 4.579583 2.483529
v -1.567244 0.466168 5.162694
v -4.301298 -0.363796 1.826010
v -0.826831 3.648150 -0.702526
v -4.638187 4.704257 1.658543
v 0.736140 2.345448 2.532665
v -4.021926 2.500424 5.435950
v -0.804263 -1.093075 1.892280
v -5.395550 -0.056237 4.371482
v -2.367233 0.209628 -1.342911
v -7.142666 1.184211 1.393023
v -3.043130 5.175207 0.230623
v -1.249573 3.238407 4.181548
v -3.010158 -1.139499 3.691295
v -5.097001 0.590509 -0.623224
v -5.975733 2.899424 3.837784
v 0.033038 0.716049 -0.024687
v 8.595444 2.242370 0.417666
v 6.104015 3.305845 -3.509731
v 6.180832 5.420013 2.869549
v 3.083375 5.346051 -0.990721
v 2.925610 2.289642 4.074265
v 0.310293 0.621512 0.012453
v 5.327306 -0.820125 1.649914
v 2.232546 0.683266 -3.202689
v 8.333325 2.787204 -2.174340
v 4.905728 6.146155 0.979817
v 0.623136 2.540978 2.710147
v 3.706660 -0.190373 -0.519791
v 8.412329 4.271408 2.130417
v 5.419109 5.322823 -2.348538
v 4.585191 4.303316 4.598620
v 0.536591 4.303151 -0.669937
v 3.986764 -0.126572 3.727983
v 0.723165 0.753024 -1.634968
v 7.813902 -0.158481 1.259780
v 4.208060 0.694203 -4.274597
v 7.456563 5.751100 -0.771180
v 2.655844 5.376123 2.207320
v 1.557388 -0.104125 1.360373
v 6.658662 -0.155419 -1.932030
v 2.154172 3.725871 -3.184558
v 6.871208 1.442326 4.009505
vt 0.698680 0.674194
vt 0.696466 0.623371
vt 0.739663 0.625979
vt 0.761590 0.674194
vt 0.632710 0.601695
vt 0.632392 0.674194
vt 0.744596 0.742806
vt 0.697366 0.725018
vt 0.647697 0.742806
vt 0.686826 0.772280
vt 0.260523 0.644962
vt 0.317921 0.642353
vt 0.309731 0.693177
vt 0.243442 0.693177
vt 0.365570 0.624565
vt 0.306640 0.601695
vt 0.363099 0.693177
vt 0.308417 0.744000
vt 0.258747 0.761789
vt 0.355647 0.761789
vt 0.304663 0.791263
vt 0.411641 0.624566
vt 0.486290 0.652117
vt 0.436065 0.693177
vt 0.371567 0.693177
vt 0.487737 0.627368
vt 0.426261 0.601695
vt 0.491980 0.693177
vt 0.427948 0.744000
vt 0.378279 0.761789
vt 0.475178 0.761789
vt 0.430982 0.791263
vt 0.517494 0.611774
vt 0.562760 0.601695
vt 0.558470 0.669306
vt 0.498166 0.677583
vt 0.610370 0.605084
vt 0.627365 0.677583
vt 0.562505 0.728407
vt 0.513471 0.746195
vt 0.610370 0.746195
vt 0.559387 0.775670
vt 0.560352 0.871669
vt 0.556469 0.824059
vt 0.557712 0.778793
vt 0.619188 0.818710
vt 0.667305 0.864827
vt 0.624108 0.893094
vt 0.579233 0.523206
vt 0.520080 0.498116
vt 0.554407 0.439333
vt 0.622202 0.475208
vt 0.465563 0.504662
vt 0.513655 0.563456
vt 0.503311 0.421237
vt 0.586720 0.392364
vt 0.650282 0.408515
vt 0.667500 0.521788
vt 0.612590 0.559640
vt 0.587223 0.598571
vt 0.552929 0.361483
vt 0.672700 0.460276
vt 0.438554 0.504662
vt 0.345974 0.507835
vt 0.377340 0.430796
vt 0.460762 0.421237
vt 0.361620 0.545997
vt 0.450561 0.563456
vt 0.378467 0.390598
vt 0.433891 0.361483
vt 0.398947 0.598571
vt 0.379268 0.579380
vt 0.341172 0.409638
vt 0.329586 0.486677
vt 0.317363 0.524839
vt 0.296895 0.453058
vt 0.277396 0.558223
vt 0.240765 0.491911
vt 0.242759 0.386679
vt 0.286485 0.369440
vt 0.227736 0.577413
vt 0.167063 0.515855
vt 0.201361 0.436373
vt 0.145406 0.433711
vt 0.185074 0.361483
vt 0.144956 0.719685
vt 0.171544 0.658173
vt 0.238466 0.652766
vt 0.227004 0.734910
vt 0.134994 0.606412
vt 0.223227 0.580537
vt 0.209139 0.796467
vt 0.139453 0.757537
vt 0.888426 0.733547
vt 0.824864 0.741569
vt 0.791073 0.694346
vt 0.868029 0.645314
vt 0.766617 0.638922
vt 0.810343 0.590875
vt 0.824426 0.552808
vt 0.754139 0.511949
vt 0.808977 0.452652
vt 0.885737 0.505343
vt 0.677501 0.502296
vt 0.726178 0.577966
vt 0.741274 0.415714
vt 0.847348 0.395786
vt 0.914497 0.418028
vt 0.912120 0.547566
vt 0.845036 0.587751
vt 0.799332 0.343755
vt 0.268298 0.284086
vt 0.207240 0.232546
vt 0.223635 0.154548
vt 0.312825 0.196771
vt 0.134994 0.257887
vt 0.183165 0.340631
vt 0.135086 0.161839
vt 0.302862 0.306328
vt 0.269258 0.358359
vt 0.160653 0.091347
vt 0.239242 0.114363
vt 0.451480 0.249888
vt 0.340693 0.229353
vt 0.398453 0.148175
vt 0.483768 0.163306
vt 0.344650 0.278927
vt 0.434109 0.325558
vt 0.318857 0.188792
vt 0.390890 0.107126
vt 0.451485 0.091347
vt 0.342880 0.358359
vt 0.342551 0.326103
vt 0.318182 0.117546
vt 0.489014 0.170778
vt 0.534434 0.123603
vt 0.578793 0.204336
vt 0.514118 0.260914
vt 0.593881 0.091347
vt 0.667625 0.161839
vt 0.627562 0.269627
vt 0.587222 0.332160
vt 0.702388 0.257887
vt 0.674021 0.340631
vt 0.893887 0.744693
vt 0.914497 0.805388
vt 0.857444 0.883977
vt 0.795639 0.792749
vt 0.722047 0.908708
vt 0.672107 0.848113
vt 0.704039 0.775404
vt 0.790837 0.822615
vn 0.628311 0.106960 0.770574
vn 0.685217 0.621831 0.379216
vn 0.002477 0.050024 0.998745
vn 0.069998 0.816013 0.573779
vn 0.591915 0.791917 -0.150010
vn 0.162786 0.978733 -0.124827
vn -0.487369 0.870094 -0.073544
vn -0.688419 0.568483 0.450451
vn -0.564758 0.043099 0.824130
vn 0.157730 0.683869 -0.712351
vn 0.677227 0.340271 -0.652364
vn 0.498022 -0.222902 -0.838027
vn 0.035870 0.047067 -0.998248
vn -0.544513 0.002888 -0.838747
vn -0.661672 0.526740 -0.533607
vn -0.170305 -0.867845 -0.466734
vn 0.673619 -0.657318 -0.337890
vn 0.563277 -0.826264 -0.002621
vn -0.043203 -0.998234 0.040770
vn -0.405285 -0.912786 0.050656
vn -0.661773 -0.590133 -0.462384
vn 0.621796 -0.579479 0.526853
vn -0.025133 -0.736207 0.676289
vn -0.649666 -0.547268 0.527667
vn 0.975592 0.218336 0.023468
vn -0.999709 -0.024139 0.000012
vn -0.804566 0.495412 -0.327475
vn -0.486846 0.867867 0.098932
vn -0.411873 0.339549 -0.845616
vn 0.007302 0.935132 -0.354223
vn -0.118354 0.842997 0.524737
vn 0.293371 0.904554 0.309379
vn 0.762234 0.642784 -0.076338
vn 0.586850 0.465350 -0.662614
vn 0.124882 0.127308 -0.983970
vn 0.437437 0.460614 0.772324
vn -0.144607 0.305030 0.941300
vn -0.132807 -0.314331 0.939978
vn 0.417269 -0.239985 0.876524
vn 0.807104 -0.391914 0.441572
vn 0.971645 0.145666 0.186246
vn 0.009095 -0.978567 0.205727
vn -0.656931 -0.517757 0.548060
vn -0.774967 -0.604274 0.185146
vn -0.362610 -0.914479 -0.179558
vn -0.037845 -0.932010 -0.360451
vn 0.515450 -0.856834 -0.012148
vn -0.956199 -0.206844 -0.207121
vn -0.550458 -0.482997 -0.680962
vn 0.096698 -0.523769 -0.846354
vn -0.725596 0.472948 0.499831
vn 0.809275 -0.294696 -0.508162
vn 0.329728 0.205013 -0.921547
vn 0.064215 0.740781 -0.668670
vn 0.838771 -0.008576 -0.544417
vn 0.583676 0.775438 -0.240868
vn -0.297445 0.914894 -0.272940
vn -0.018113 0.995337 0.094740
vn 0.347430 0.736127 0.580870
vn 0.836488 0.366351 0.407522
vn 0.990495 -0.136735 0.014912
vn -0.556120 0.741801 0.374783
vn -0.839533 0.525149 -0.139293
vn -0.998455 -0.052529 0.018125
vn -0.841520 0.111717 0.528549
vn -0.411302 -0.074976 0.908410
vn -0.003975 0.388895 0.921273
vn -0.450906 -0.855215 0.255522
vn -0.750571 -0.462549 -0.471901
vn -0.443068 -0.671564 -0.593879
vn -0.118150 -0.981686 -0.149440
vn 0.095442 -0.983243 0.155320
vn -0.140218 -0.699759 0.700483
vn 0.010087 -0.448962 -0.893494
vn 0.447212 -0.759793 -0.471928
vn 0.684999 -0.712551 0.151813
vn -0.455245 0.436868 -0.775821
vn 0.521477 -0.255247 0.814194
s 1
g polySurface1
usemtl phongE1SG
f 2/2/1 14/3/2 9/1/3
f 9/1/3 14/3/2 21/4/4
f 4/12/5 10/13/6 14/11/2
f 14/11/2 10/13/6 21/14/4
f 10/13/6 3/18/7 21/14/4
f 21/14/4 3/18/7 13/19/8
f 13/7/8 1/8/9 21/4/4
f 21/4/4 1/8/9 9/1/3
f 10/13/6 4/12/5 22/17/10
f 22/17/10 4/12/5 16/15/11
f 6/23/12 11/24/13 16/22/11
f 16/22/11 11/24/13 22/25/10
f 11/24/13 5/29/14 22/25/10
f 22/25/10 5/29/14 15/30/15
f 15/20/15 3/18/7 22/17/10
f 22/17/10 3/18/7 10/13/6
f 11/24/13 6/23/12 23/28/16
f 23/28/16 6/23/12 18/26/17
f 8/34/18 12/35/19 18/33/17
f 18/33/17 12/35/19 23/36/16
f 12/35/19 7/39/20 23/36/16
f 23/36/16 7/39/20 17/40/21
f 17/31/21 5/29/14 23/28/16
f 23/28/16 5/29/14 11/24/13
f 8/34/18 20/37/22 12/35/19
f 12/35/19 20/37/22 24/38/23
f 20/5/22 2/2/1 24/6/23
f 24/6/23 2/2/1 9/1/3
f 9/1/3 1/8/9 24/6/23
f 24/6/23 1/8/9 19/9/24
f 19/41/24 7/39/20 24/38/23
f 24/38/23 7/39/20 12/35/19
f 20/43/22 8/44/18 25/46/25
f 25/46/25 8/44/18 18/45/17
f 6/23/12 16/22/11 18/26/17
f 18/26/17 16/22/11 25/27/25
f 16/15/11 4/12/5 25/16/25
f 25/16/25 4/12/5 14/11/2
f 14/47/2 2/48/1 25/46/25
f 25/46/25 2/48/1 20/43/22
f 19/9/24 1/8/9 26/10/26
f 26/10/26 1/8/9 13/7/8
f 13/19/8 3/18/7 26/21/26
f 26/21/26 3/18/7 15/20/15
f 15/30/15 5/29/14 26/32/26
f 26/32/26 5/29/14 17/31/21
f 17/40/21 7/39/20 26/42/26
f 26/42/26 7/39/20 19/41/24
s 5
f 28/59/27 40/49/28 35/58/29
f 35/58/29 40/49/28 47/52/30
f 30/50/31 36/51/32 40/49/28
f 40/49/28 36/51/32 47/52/30
f 36/51/32 29/56/33 47/52/30
f 47/52/30 29/56/33 39/57/34
f 39/57/34 27/62/35 47/52/30
f 47/52/30 27/62/35 35/58/29
f 36/51/32 30/50/31 48/55/36
f 48/55/36 30/50/31 42/53/37
f 32/64/38 37/65/39 42/63/37
f 42/63/37 37/65/39 48/66/36
f 37/65/39 31/69/40 48/66/36
f 48/66/36 31/69/40 41/70/41
f 41/61/41 29/56/33 48/55/36
f 48/55/36 29/56/33 36/51/32
f 37/73/39 32/74/38 49/76/42
f 49/76/42 32/74/38 44/75/43
f 34/77/44 38/78/45 44/75/43
f 44/75/43 38/78/45 49/76/42
f 38/78/45 33/83/46 49/76/42
f 49/76/42 33/83/46 43/79/47
f 43/79/47 31/80/40 49/76/42
f 49/76/42 31/80/40 37/73/39
f 34/77/44 46/81/48 38/78/45
f 38/78/45 46/81/48 50/82/49
f 46/92/48 28/93/27 50/89/49
f 50/89/49 28/93/27 35/86/29
f 35/86/29 27/87/35 50/89/49
f 50/89/49 27/87/35 45/88/50
f 45/84/50 33/83/46 50/82/49
f 50/82/49 33/83/46 38/78/45
f 46/71/48 34/72/44 51/68/51
f 51/68/51 34/72/44 44/67/43
f 32/64/38 42/63/37 44/67/43
f 44/67/43 42/63/37 51/68/51
f 42/53/37 30/50/31 51/54/51
f 51/54/51 30/50/31 40/49/28
f 40/49/28 28/59/27 51/54/51
f 51/54/51 28/59/27 46/60/48
f 45/88/50 27/87/35 52/91/52
f 52/91/52 27/87/35 39/90/34
f 39/94/34 29/95/33 52/97/52
f 52/97/52 29/95/33 41/96/41
f 41/96/41 31/98/40 52/97/52
f 52/97/52 31/98/40 43/99/47
f 43/79/47 33/83/46 52/85/52
f 52/85/52 33/83/46 45/84/50
s 9
f 54/110/53 66/100/54 61/109/55
f 61/109/55 66/100/54 73/103/56
f 56/101/57 62/102/58 66/100/54
f 66/100/54 62/102/58 73/103/56
f 62/102/58 55/107/59 73/103/56
f 73/103/56 55/107/59 65/108/60
f 65/112/60 53/113/61 73/115/56
f 73/115/56 53/113/61 61/114/55
f 62/102/58 56/101/57 74/106/62
f 74/106/62 56/101/57 68/104/63
f 58/124/64 63/125/65 68/123/63
f 68/123/63 63/125/65 74/126/62
f 63/125/65 57/130/66 74/126/62
f 74/126/62 57/130/66 67/131/67
f 67/111/67 55/107/59 74/106/62
f 74/106/62 55/107/59 62/102/58
f 63/125/65 58/124/64 75/129/68
f 75/129/68 58/124/64 70/127/69
f 60/136/70 64/137/71 70/135/69
f 70/135/69 64/137/71 75/138/68
f 64/137/71 59/141/72 75/138/68
f 75/138/68 59/141/72 69/142/73
f 69/134/73 57/130/66 75/129/68
f 75/129/68 57/130/66 63/125/65
f 60/136/70 72/139/74 64/137/71
f 64/137/71 72/139/74 76/140/75
f 72/121/74 54/122/53 76/118/75
f 76/118/75 54/122/53 61/114/55
f 61/114/55 53/113/61 76/118/75
f 76/118/75 53/113/61 71/116/76
f 71/143/76 59/141/72 76/140/75
f 76/140/75 59/141/72 64/137/71
f 72/132/74 60/133/70 77/128/77
f 77/128/77 60/133/70 70/127/69
f 58/124/64 68/123/63 70/127/69
f 70/127/69 68/123/63 77/128/77
f 68/104/63 56/101/57 77/105/77
f 77/105/77 56/101/57 66/100/54
f 66/145/54 54/146/53 77/148/77
f 77/148/77 54/146/53 72/147/74
f 71/116/76 53/113/61 78/117/78
f 78/117/78 53/113/61 65/112/60
f 65/112/60 55/119/59 78/117/78
f 78/117/78 55/119/59 67/120/67
f 67/149/67 57/150/66 78/152/78
f 78/152/78 57/150/66 69/151/73
f 69/142/73 59/141/72 78/144/78
f 78/144/78 59/141/72 71/143/76
