# This file uses centimeters as units for non-parametric coordinates.

mtllib Thing.mtl
g default
v 0.257679 0.000000 -0.773981
v -0.653962 0.000000 -0.477771
v -0.653962 0.000000 0.480785
v 0.257679 0.000000 0.776995
v 0.821104 0.000000 0.001507
v 0.005708 1.554920 0.001507
v 0.005708 -1.554920 0.001507
vt 0.250000 0.500000
vt 0.350000 0.500000
vt 0.450000 0.500000
vt 0.550000 0.500000
vt 0.650000 0.500000
vt 0.750000 0.500000
vt 0.500000 1.000000
vt 0.250000 0.500000
vt 0.350000 0.500000
vt 0.500000 1.000000
vt 0.450000 0.500000
vt 0.550000 0.500000
vt 0.650000 0.500000
vt 0.750000 0.500000
vn -0.284475 0.390553 -0.875524
vn -0.284475 0.390553 -0.875524
vn -0.284475 0.390553 -0.875524
vn -0.920580 0.390553 -0.000000
vn -0.920580 0.390553 -0.000000
vn -0.920580 0.390553 -0.000000
vn -0.284475 0.390553 0.875524
vn -0.284475 0.390553 0.875524
vn -0.284475 0.390553 0.875524
vn 0.744765 0.390553 0.541104
vn 0.744765 0.390553 0.541104
vn 0.744765 0.390553 0.541104
vn 0.744766 0.390553 -0.541103
vn 0.744766 0.390553 -0.541103
vn 0.744766 0.390553 -0.541103
vn -0.284475 -0.390553 -0.875524
vn -0.284475 -0.390553 -0.875524
vn -0.284475 -0.390553 -0.875524
vn -0.920580 -0.390553 -0.000000
vn -0.920580 -0.390553 -0.000000
vn -0.920580 -0.390553 -0.000000
vn -0.284475 -0.390553 0.875524
vn -0.284475 -0.390553 0.875524
vn -0.284475 -0.390553 0.875524
vn 0.744765 -0.390553 0.541104
vn 0.744765 -0.390553 0.541104
vn 0.744765 -0.390553 0.541104
vn 0.744766 -0.390553 -0.541103
vn 0.744766 -0.390553 -0.541103
vn 0.744766 -0.390553 -0.541103
s off
g polySurface6
usemtl lambert3SG
f 1/1/1 2/2/2 6/7/3
f 2/2/4 3/3/5 6/7/6
f 3/3/7 4/4/8 6/7/9
f 4/4/10 5/5/11 6/7/12
f 5/5/13 1/6/14 6/7/15
f 1/8/16 7/10/17 2/9/18
f 2/9/19 7/10/20 3/11/21
f 3/11/22 7/10/23 4/12/24
f 4/12/25 7/10/26 5/13/27
f 5/13/28 7/10/29 1/14/30
