# This file uses centimeters as units for non-parametric coordinates.

mtllib Thread_v01.mtl
g default
v -0.332398 1.242470 1.448018
v -0.318739 1.139969 1.448018
v -0.274073 1.046707 1.448018
v -0.202775 0.971811 1.448018
v -0.111822 0.922614 1.448018
v -0.010117 0.903929 1.448018
v 0.092383 0.917589 1.448018
v 0.185646 0.962254 1.448018
v 0.260541 1.033553 1.448018
v 0.309739 1.124506 1.448018
v 0.328423 1.226210 1.448018
v 0.314763 1.328711 1.448018
v 0.270098 1.421973 1.448018
v 0.198800 1.496869 1.448018
v 0.107847 1.546067 1.448018
v 0.006142 1.564751 1.448018
v -0.096358 1.551091 1.448018
v -0.189621 1.506426 1.448018
v -0.264517 1.435128 1.448018
v -0.313714 1.344174 1.448018
v -1.232657 1.264620 1.448019
v -1.181781 0.882841 1.448019
v -1.015419 0.535468 1.448019
v -0.749854 0.256506 1.448019
v -0.411084 0.073261 1.448019
v -0.032268 0.003670 1.448019
v 0.349512 0.054546 1.448019
v 0.696885 0.220909 1.448019
v 0.975847 0.486473 1.448019
v 1.159092 0.825244 1.448019
v 1.228682 1.204060 1.448019
v 1.177806 1.585840 1.448019
v 1.011444 1.933212 1.448019
v 0.745879 2.212175 1.448019
v 0.407109 2.395420 1.448019
v 0.028293 2.465010 1.448019
v -0.353487 2.414134 1.448019
v -0.700860 2.247772 1.448019
v -0.979823 1.982207 1.448019
v -1.163068 1.643436 1.448019
v -1.232657 1.264620 -1.443972
v -1.181781 0.882841 -1.443972
v -1.015419 0.535468 -1.443972
v -0.749854 0.256506 -1.443972
v -0.411084 0.073261 -1.443972
v -0.032268 0.003670 -1.443972
v 0.349512 0.054546 -1.443972
v 0.696885 0.220909 -1.443972
v 0.975847 0.486473 -1.443972
v 1.159092 0.825244 -1.443972
v 1.228682 1.204060 -1.443972
v 1.177806 1.585840 -1.443972
v 1.011444 1.933212 -1.443972
v 0.745879 2.212175 -1.443972
v 0.407109 2.395420 -1.443972
v 0.028293 2.465010 -1.443972
v -0.353487 2.414134 -1.443972
v -0.700860 2.247772 -1.443972
v -0.979823 1.982207 -1.443972
v -1.163068 1.643436 -1.443972
v -0.318739 1.139970 4.042388
v -0.274073 1.046707 4.042388
v -0.202775 0.971811 4.042388
v -0.111822 0.922614 4.042388
v -0.010117 0.903930 4.042388
v 0.092383 0.917589 4.042388
v 0.185646 0.962254 4.042388
v 0.260541 1.033553 4.042388
v 0.309739 1.124506 4.042388
v 0.328423 1.226210 4.042388
v 0.314763 1.328711 4.042388
v 0.270098 1.421973 4.042388
v 0.198800 1.496869 4.042388
v 0.107847 1.546067 4.042388
v 0.006142 1.564751 4.042388
v -0.096358 1.551091 4.042388
v -0.189621 1.506426 4.042388
v -0.264517 1.435128 4.042388
v -0.313714 1.344174 4.042388
v -0.332398 1.242470 4.042388
v -0.332398 1.242470 -1.444386
v -0.318739 1.139969 -1.444386
v -0.274073 1.046707 -1.444386
v -0.202775 0.971811 -1.444386
v -0.111822 0.922614 -1.444386
v -0.010117 0.903929 -1.444386
v 0.092383 0.917589 -1.444386
v 0.185646 0.962254 -1.444386
v 0.260541 1.033553 -1.444386
v 0.309739 1.124506 -1.444386
v 0.328423 1.226210 -1.444386
v 0.314763 1.328711 -1.444386
v 0.270098 1.421973 -1.444386
v 0.198800 1.496869 -1.444386
v 0.107847 1.546067 -1.444386
v 0.006142 1.564751 -1.444386
v -0.096358 1.551091 -1.444386
v -0.189621 1.506426 -1.444386
v -0.264517 1.435128 -1.444386
v -0.313714 1.344174 -1.444386
v -0.318739 1.139970 -4.038567
v -0.274073 1.046707 -4.038567
v -0.202775 0.971811 -4.038567
v -0.111822 0.922614 -4.038567
v -0.010117 0.903930 -4.038567
v 0.092383 0.917589 -4.038567
v 0.185646 0.962254 -4.038567
v 0.260541 1.033553 -4.038567
v 0.309739 1.124506 -4.038567
v 0.328423 1.226210 -4.038567
v 0.314763 1.328711 -4.038567
v 0.270098 1.421973 -4.038567
v 0.198800 1.496869 -4.038567
v 0.107847 1.546067 -4.038567
v 0.006142 1.564751 -4.038567
v -0.096358 1.551091 -4.038567
v -0.189621 1.506426 -4.038567
v -0.264517 1.435128 -4.038567
v -0.313714 1.344174 -4.038567
v -0.332398 1.242470 -4.038567
vt 0.816287 0.659426
vt 0.781543 0.659426
vt 0.816287 0.659426
vt 0.781543 0.659426
vt 0.851032 0.659426
vt 0.851032 0.659426
vt 0.885777 0.659426
vt 0.885777 0.659426
vt 0.920521 0.659426
vt 0.260375 0.659426
vt 0.260375 0.659426
vt 0.295120 0.659426
vt 0.295120 0.659426
vt 0.329864 0.659426
vt 0.329864 0.659426
vt 0.364609 0.659426
vt 0.364609 0.659426
vt 0.399353 0.659426
vt 0.399353 0.659426
vt 0.434098 0.659426
vt 0.434098 0.659426
vt 0.468842 0.659426
vt 0.468842 0.659426
vt 0.503587 0.659426
vt 0.503587 0.659426
vt 0.538332 0.659426
vt 0.538332 0.659426
vt 0.573076 0.659426
vt 0.573076 0.659426
vt 0.607821 0.659426
vt 0.607820 0.659426
vt 0.642565 0.659426
vt 0.642565 0.659426
vt 0.677310 0.659426
vt 0.677309 0.659426
vt 0.712054 0.659426
vt 0.712054 0.659426
vt 0.746799 0.659426
vt 0.746799 0.659426
vt 0.816287 0.345936
vt 0.781543 0.345936
vt 0.851032 0.345936
vt 0.885777 0.345936
vt 0.920521 0.345936
vt 0.260375 0.345936
vt 0.295120 0.345936
vt 0.329864 0.345936
vt 0.364609 0.345936
vt 0.399353 0.345936
vt 0.434098 0.345936
vt 0.468842 0.345936
vt 0.503587 0.345936
vt 0.538332 0.345936
vt 0.573076 0.345936
vt 0.607820 0.345936
vt 0.642565 0.345936
vt 0.677309 0.345936
vt 0.712054 0.345936
vt 0.746799 0.345936
vt 0.816287 0.940653
vt 0.851032 0.940653
vt 0.885777 0.940653
vt 0.146468 0.880788
vt 0.147764 0.888695
vt 0.215119 0.859246
vt 0.219948 0.888695
vt 0.142705 0.873656
vt 0.201103 0.832680
vt 0.136844 0.867996
vt 0.179272 0.811597
vt 0.129458 0.864362
vt 0.151764 0.798061
vt 0.121272 0.863109
vt 0.121272 0.793397
vt 0.113085 0.864362
vt 0.090779 0.798061
vt 0.105700 0.867996
vt 0.063271 0.811597
vt 0.099839 0.873656
vt 0.041441 0.832680
vt 0.096076 0.880788
vt 0.027425 0.859246
vt 0.260375 0.940653
vt 0.295120 0.940653
vt 0.329864 0.940653
vt 0.364609 0.940653
vt 0.399353 0.940653
vt 0.434098 0.940653
vt 0.468842 0.940653
vt 0.503587 0.940653
vt 0.538332 0.940653
vt 0.573076 0.940653
vt 0.607821 0.940653
vt 0.642565 0.940653
vt 0.677310 0.940653
vt 0.712054 0.940653
vt 0.746799 0.940653
vt 0.781543 0.940653
vt 0.816287 0.345891
vt 0.781543 0.345891
vt 0.851032 0.345891
vt 0.885777 0.345891
vt 0.920521 0.345891
vt 0.260375 0.345891
vt 0.295120 0.345891
vt 0.329864 0.345891
vt 0.364609 0.345891
vt 0.399353 0.345891
vt 0.434098 0.345891
vt 0.468842 0.345891
vt 0.503587 0.345891
vt 0.538332 0.345891
vt 0.573076 0.345891
vt 0.607821 0.345891
vt 0.642565 0.345891
vt 0.677310 0.345891
vt 0.712054 0.345891
vt 0.746799 0.345891
vt 0.816287 0.064684
vt 0.851032 0.064684
vt 0.885777 0.064684
vt 0.260375 0.064684
vt 0.094779 0.888695
vt 0.022595 0.888695
vt 0.096076 0.896601
vt 0.027425 0.918143
vt 0.099839 0.903734
vt 0.041441 0.944709
vt 0.105700 0.909394
vt 0.063271 0.965792
vt 0.113085 0.913028
vt 0.090779 0.979328
vt 0.121272 0.914280
vt 0.121272 0.983992
vt 0.129458 0.913028
vt 0.151764 0.979328
vt 0.136844 0.909394
vt 0.179272 0.965792
vt 0.142705 0.903734
vt 0.201103 0.944709
vt 0.146468 0.896601
vt 0.215119 0.918143
vt 0.295120 0.064684
vt 0.329864 0.064684
vt 0.364609 0.064684
vt 0.399353 0.064684
vt 0.434098 0.064684
vt 0.468842 0.064684
vt 0.503587 0.064684
vt 0.538332 0.064684
vt 0.573076 0.064684
vt 0.607821 0.064684
vt 0.642565 0.064684
vt 0.677310 0.064684
vt 0.712054 0.064684
vt 0.746799 0.064684
vt 0.781543 0.064684
vt 0.955266 0.659426
vt 0.920521 0.659426
vt 0.955266 0.659426
vt 0.920521 0.940653
vt 0.955266 0.940653
vt 0.955266 0.345936
vt 0.920521 0.064684
vt 0.955266 0.345891
vt 0.955266 0.064684
vt 0.146468 0.880788
vt 0.142705 0.873656
vt 0.147764 0.888695
vt 0.136844 0.867996
vt 0.129458 0.864362
vt 0.121272 0.863109
vt 0.113085 0.864362
vt 0.105700 0.867996
vt 0.099839 0.873656
vt 0.096076 0.880788
vt 0.094779 0.888695
vt 0.096076 0.896601
vt 0.099839 0.903734
vt 0.105700 0.909394
vt 0.113085 0.913028
vt 0.121272 0.914280
vt 0.129458 0.913028
vt 0.136844 0.909394
vt 0.142705 0.903734
vt 0.146468 0.896601
vt 0.146468 0.880788
vt 0.215119 0.859246
vt 0.147764 0.888695
vt 0.219948 0.888695
vt 0.142705 0.873656
vt 0.201103 0.832680
vt 0.136844 0.867996
vt 0.179272 0.811597
vt 0.129458 0.864362
vt 0.151764 0.798061
vt 0.121272 0.863109
vt 0.121272 0.793397
vt 0.113085 0.864362
vt 0.090779 0.798061
vt 0.105700 0.867996
vt 0.063271 0.811597
vt 0.099839 0.873656
vt 0.041441 0.832680
vt 0.096076 0.880788
vt 0.027425 0.859246
vt 0.094779 0.888695
vt 0.022595 0.888695
vt 0.096076 0.896601
vt 0.027425 0.918143
vt 0.099839 0.903734
vt 0.041441 0.944709
vt 0.105700 0.909394
vt 0.063271 0.965792
vt 0.113085 0.913028
vt 0.090779 0.979328
vt 0.121272 0.914280
vt 0.121272 0.983992
vt 0.129458 0.913028
vt 0.151764 0.979328
vt 0.136844 0.909394
vt 0.179272 0.965792
vt 0.142705 0.903734
vt 0.201103 0.944709
vt 0.146468 0.896601
vt 0.215119 0.918143
vt 0.146468 0.880788
vt 0.147764 0.888695
vt 0.142705 0.873656
vt 0.146468 0.896601
vt 0.142705 0.903734
vt 0.136844 0.909394
vt 0.129458 0.913028
vt 0.121272 0.914280
vt 0.113085 0.913028
vt 0.105700 0.909394
vt 0.099839 0.903734
vt 0.096076 0.896601
vt 0.094779 0.888695
vt 0.096076 0.880788
vt 0.099839 0.873656
vt 0.105700 0.867996
vt 0.113085 0.864362
vt 0.121272 0.863109
vt 0.129458 0.864362
vt 0.136844 0.867996
vn 0.000001 -0.000000 1.000000
vn 0.000001 -0.000000 1.000000
vn 0.000001 -0.000001 1.000000
vn 0.000001 -0.000000 1.000000
vn 0.000001 0.000001 1.000000
vn 0.000001 0.000000 1.000000
vn 0.000001 0.000001 1.000000
vn 0.000001 0.000002 1.000000
vn 0.000000 0.000002 1.000000
vn 0.000000 0.000002 1.000000
vn -0.000000 0.000002 1.000000
vn 0.000000 0.000002 1.000000
vn -0.000000 0.000003 1.000000
vn -0.000000 0.000001 1.000000
vn -0.000001 -0.000000 1.000000
vn -0.000001 0.000001 1.000000
vn -0.000001 -0.000002 1.000000
vn -0.000001 0.000002 1.000000
vn -0.000001 0.000000 1.000000
vn -0.000001 0.000002 1.000000
vn -0.000001 -0.000000 1.000000
vn -0.000001 -0.000000 1.000000
vn -0.000001 -0.000000 1.000000
vn -0.000001 -0.000001 1.000000
vn -0.000001 -0.000002 1.000000
vn -0.000001 -0.000001 1.000000
vn -0.000001 -0.000002 1.000000
vn -0.000001 -0.000001 1.000000
vn -0.000000 -0.000001 1.000000
vn -0.000000 -0.000001 1.000000
vn 0.000000 -0.000001 1.000000
vn -0.000000 -0.000002 1.000000
vn 0.000000 -0.000002 1.000000
vn 0.000000 -0.000001 1.000000
vn 0.000001 -0.000002 1.000000
vn 0.000001 -0.000001 1.000000
vn 0.000001 0.000000 1.000000
vn 0.000001 -0.000000 1.000000
vn 0.000001 0.000000 1.000000
vn 0.000001 0.000001 1.000000
vn -0.958370 -0.285530 -0.000000
vn -0.999697 0.024596 0.000000
vn -0.958370 -0.285530 -0.000000
vn -0.999697 0.024596 0.000000
vn -0.823230 -0.567708 -0.000000
vn -0.823230 -0.567708 -0.000000
vn -0.607507 -0.794314 -0.000000
vn -0.607507 -0.794314 -0.000000
vn -0.332317 -0.943168 -0.000000
vn -0.332317 -0.943168 -0.000000
vn -0.024598 -0.999697 -0.000000
vn -0.024597 -0.999697 -0.000000
vn 0.285530 -0.958370 -0.000000
vn 0.285530 -0.958370 -0.000000
vn 0.567708 -0.823230 -0.000000
vn 0.567707 -0.823230 -0.000000
vn 0.794314 -0.607507 -0.000000
vn 0.794314 -0.607507 -0.000000
vn 0.943168 -0.332317 -0.000000
vn 0.943168 -0.332317 -0.000000
vn 0.999697 -0.024597 -0.000000
vn 0.999697 -0.024597 -0.000000
vn 0.958370 0.285530 0.000000
vn 0.958370 0.285530 0.000000
vn 0.823230 0.567708 0.000000
vn 0.823230 0.567708 0.000000
vn 0.607507 0.794314 0.000000
vn 0.607507 0.794314 0.000000
vn 0.332317 0.943168 0.000000
vn 0.332317 0.943168 0.000000
vn 0.024597 0.999697 0.000000
vn 0.024598 0.999697 0.000000
vn -0.285530 0.958370 0.000000
vn -0.285530 0.958370 0.000000
vn -0.567707 0.823230 0.000000
vn -0.567708 0.823230 0.000000
vn -0.794314 0.607507 0.000000
vn -0.794314 0.607507 0.000000
vn -0.943168 0.332316 0.000000
vn -0.943168 0.332316 0.000000
vn -0.000000 -0.000000 1.000000
vn -0.000000 -0.000009 1.000000
vn -0.000000 -0.000001 1.000000
vn -0.000000 -0.000001 1.000000
vn -0.000000 -0.000000 1.000000
vn -0.000000 -0.000000 1.000000
vn -0.000000 -0.000006 1.000000
vn -0.000000 -0.000002 1.000000
vn -0.000000 -0.000000 1.000000
vn -0.000000 -0.000000 1.000000
vn -0.000000 -0.000000 1.000000
vn -0.000000 -0.000000 1.000000
vn -0.000000 -0.000000 1.000000
vn -0.000000 -0.000000 1.000000
vn -0.000000 -0.000000 1.000000
vn -0.000000 -0.000002 1.000000
vn -0.000000 -0.000011 1.000000
vn -0.000000 -0.000000 1.000000
vn 0.000000 0.000001 1.000000
vn 0.000001 0.000027 1.000000
vn -0.958369 -0.285532 -0.000000
vn -0.823230 -0.567708 0.000000
vn -0.958369 -0.285532 0.000000
vn -0.823230 -0.567707 0.000000
vn -0.607507 -0.794314 0.000000
vn -0.607507 -0.794314 0.000000
vn -0.332319 -0.943167 0.000000
vn -0.332319 -0.943167 0.000000
vn -0.024597 -0.999697 0.000000
vn -0.024597 -0.999697 0.000000
vn 0.285532 -0.958369 0.000000
vn 0.285532 -0.958369 0.000000
vn 0.567708 -0.823230 0.000000
vn 0.567708 -0.823230 0.000000
vn 0.794314 -0.607507 0.000000
vn 0.794314 -0.607507 0.000000
vn 0.943167 -0.332319 0.000000
vn 0.943167 -0.332319 0.000000
vn 0.999697 -0.024597 0.000000
vn 0.999697 -0.024597 -0.000000
vn 0.958369 0.285532 -0.000000
vn 0.958369 0.285532 0.000000
vn 0.823230 0.567708 0.000000
vn 0.823230 0.567708 -0.000000
vn 0.607507 0.794314 -0.000000
vn 0.607507 0.794314 -0.000000
vn 0.332319 0.943167 -0.000000
vn 0.332319 0.943167 -0.000000
vn 0.024598 0.999697 -0.000000
vn 0.024597 0.999697 -0.000000
vn -0.285532 0.958369 -0.000000
vn -0.285533 0.958369 0.000000
vn -0.567707 0.823231 0.000000
vn -0.567708 0.823230 0.000000
vn -0.794314 0.607508 0.000000
vn -0.794314 0.607507 0.000000
vn -0.943167 0.332318 0.000000
vn -0.943168 0.332318 0.000000
vn -0.999697 0.024597 -0.000000
vn -0.999697 0.024597 -0.000000
vn -0.000436 -0.000149 -1.000000
vn -0.000440 -0.000133 -1.000000
vn -0.000461 -0.000007 -1.000000
vn -0.000460 0.000009 -1.000000
vn -0.000368 -0.000276 -1.000000
vn -0.000378 -0.000263 -1.000000
vn -0.000265 -0.000377 -1.000000
vn -0.000278 -0.000367 -1.000000
vn -0.000136 -0.000440 -1.000000
vn -0.000151 -0.000435 -1.000000
vn 0.000007 -0.000460 -1.000000
vn -0.000009 -0.000460 -1.000000
vn 0.000149 -0.000436 -1.000000
vn 0.000133 -0.000440 -1.000000
vn 0.000276 -0.000368 -1.000000
vn 0.000263 -0.000377 -1.000000
vn 0.000377 -0.000264 -1.000000
vn 0.000367 -0.000278 -1.000000
vn 0.000440 -0.000135 -1.000000
vn 0.000435 -0.000152 -1.000000
vn 0.000461 0.000007 -1.000000
vn 0.000460 -0.000009 -1.000000
vn 0.000436 0.000149 -1.000000
vn 0.000440 0.000134 -1.000000
vn 0.000368 0.000276 -1.000000
vn 0.000378 0.000263 -1.000000
vn 0.000265 0.000377 -1.000000
vn 0.000278 0.000367 -1.000000
vn 0.000136 0.000440 -1.000000
vn 0.000151 0.000435 -1.000000
vn -0.000007 0.000460 -1.000000
vn 0.000009 0.000460 -1.000000
vn -0.000149 0.000436 -1.000000
vn -0.000133 0.000441 -1.000000
vn -0.000276 0.000369 -1.000000
vn -0.000263 0.000378 -1.000000
vn -0.000377 0.000264 -1.000000
vn -0.000367 0.000278 -1.000000
vn -0.000440 0.000135 -1.000000
vn -0.000435 0.000151 -1.000000
vn 0.000000 0.000000 -1.000000
vn 0.000000 0.000000 -1.000000
vn -0.000000 -0.000000 -1.000000
vn 0.000000 0.000000 -1.000000
vn -0.000000 -0.000000 -1.000000
vn -0.000000 -0.000000 -1.000000
vn -0.000000 -0.000000 -1.000000
vn -0.000000 -0.000001 -1.000000
vn -0.000000 -0.000000 -1.000000
vn 0.000000 0.000000 -1.000000
vn 0.000000 0.000001 -1.000000
vn 0.000000 0.000001 -1.000000
vn 0.000000 0.000000 -1.000000
vn -0.000000 -0.000001 -1.000000
vn -0.000000 -0.000001 -1.000000
vn 0.000000 0.000000 -1.000000
vn 0.000000 0.000000 -1.000000
vn 0.000000 0.000000 -1.000000
vn 0.000000 0.000000 -1.000000
vn 0.000000 0.000000 -1.000000
vn -0.958369 -0.285532 -0.000000
vn -0.958369 -0.285532 0.000000
vn -0.823230 -0.567708 -0.000000
vn -0.823230 -0.567708 -0.000000
vn -0.607507 -0.794314 -0.000000
vn -0.607507 -0.794314 -0.000000
vn -0.332319 -0.943167 -0.000000
vn -0.332319 -0.943167 -0.000000
vn -0.024597 -0.999697 -0.000000
vn -0.024597 -0.999697 -0.000000
vn 0.285532 -0.958369 -0.000000
vn 0.285532 -0.958369 -0.000000
vn 0.567708 -0.823230 -0.000000
vn 0.567708 -0.823230 -0.000000
vn 0.794314 -0.607507 -0.000000
vn 0.794314 -0.607507 -0.000000
vn 0.943167 -0.332319 -0.000000
vn 0.943167 -0.332319 -0.000000
vn 0.999697 -0.024597 0.000000
vn 0.999697 -0.024597 0.000000
vn 0.958369 0.285532 0.000000
vn 0.958369 0.285532 0.000000
vn 0.823230 0.567708 0.000000
vn 0.823230 0.567708 0.000000
vn 0.607507 0.794314 0.000000
vn 0.607507 0.794314 0.000000
vn 0.332319 0.943167 0.000000
vn 0.332319 0.943167 0.000000
vn 0.024597 0.999697 0.000000
vn 0.024597 0.999697 0.000000
vn -0.285532 0.958369 0.000000
vn -0.285532 0.958369 0.000000
vn -0.567707 0.823230 0.000000
vn -0.567708 0.823230 0.000000
vn -0.794314 0.607507 0.000000
vn -0.794314 0.607507 0.000000
vn -0.943168 0.332318 0.000000
vn -0.943167 0.332318 -0.000000
vn -0.999697 0.024597 -0.000000
vn -0.999697 0.024597 -0.000000
s 1
g polySurface1
usemtl lambert2SG
f 2/63/1 1/64/2 22/65/3
f 22/65/3 1/64/2 21/66/4
f 3/67/5 2/63/1 23/68/6
f 23/68/6 2/63/1 22/65/3
f 4/69/7 3/67/5 24/70/8
f 24/70/8 3/67/5 23/68/6
f 5/71/9 4/69/7 25/72/10
f 25/72/10 4/69/7 24/70/8
f 6/73/11 5/71/9 26/74/12
f 26/74/12 5/71/9 25/72/10
f 7/75/13 6/73/11 27/76/14
f 27/76/14 6/73/11 26/74/12
f 8/77/15 7/75/13 28/78/16
f 28/78/16 7/75/13 27/76/14
f 9/79/17 8/77/15 29/80/18
f 29/80/18 8/77/15 28/78/16
f 10/81/19 9/79/17 30/82/20
f 30/82/20 9/79/17 29/80/18
f 11/123/21 10/81/19 31/124/22
f 31/124/22 10/81/19 30/82/20
f 12/125/23 11/123/21 32/126/24
f 32/126/24 11/123/21 31/124/22
f 13/127/25 12/125/23 33/128/26
f 33/128/26 12/125/23 32/126/24
f 14/129/27 13/127/25 34/130/28
f 34/130/28 13/127/25 33/128/26
f 15/131/29 14/129/27 35/132/30
f 35/132/30 14/129/27 34/130/28
f 16/133/31 15/131/29 36/134/32
f 36/134/32 15/131/29 35/132/30
f 17/135/33 16/133/31 37/136/34
f 37/136/34 16/133/31 36/134/32
f 18/137/35 17/135/33 38/138/36
f 38/138/36 17/135/33 37/136/34
f 19/139/37 18/137/35 39/140/38
f 39/140/38 18/137/35 38/138/36
f 20/141/39 19/139/37 40/142/40
f 40/142/40 19/139/37 39/140/38
f 1/64/2 20/141/39 21/66/4
f 21/66/4 20/141/39 40/142/40
s 2
f 22/3/41 21/4/42 42/40/43
f 42/40/43 21/4/42 41/41/44
f 23/6/45 22/3/41 43/42/46
f 43/42/46 22/3/41 42/40/43
f 24/8/47 23/6/45 44/43/48
f 44/43/48 23/6/45 43/42/46
f 25/159/49 24/8/47 45/44/50
f 45/44/50 24/8/47 44/43/48
f 26/158/51 25/159/49 46/163/52
f 46/163/52 25/159/49 45/44/50
f 27/13/53 26/11/51 47/46/54
f 47/46/54 26/11/51 46/45/52
f 28/15/55 27/13/53 48/47/56
f 48/47/56 27/13/53 47/46/54
f 29/17/57 28/15/55 49/48/58
f 49/48/58 28/15/55 48/47/56
f 30/19/59 29/17/57 50/49/60
f 50/49/60 29/17/57 49/48/58
f 31/21/61 30/19/59 51/50/62
f 51/50/62 30/19/59 50/49/60
f 32/23/63 31/21/61 52/51/64
f 52/51/64 31/21/61 51/50/62
f 33/25/65 32/23/63 53/52/66
f 53/52/66 32/23/63 52/51/64
f 34/27/67 33/25/65 54/53/68
f 54/53/68 33/25/65 53/52/66
f 35/29/69 34/27/67 55/54/70
f 55/54/70 34/27/67 54/53/68
f 36/31/71 35/29/69 56/55/72
f 56/55/72 35/29/69 55/54/70
f 37/33/73 36/31/71 57/56/74
f 57/56/74 36/31/71 56/55/72
f 38/35/75 37/33/73 58/57/76
f 58/57/76 37/33/73 57/56/74
f 39/37/77 38/35/75 59/58/78
f 59/58/78 38/35/75 58/57/76
f 40/39/79 39/37/77 60/59/80
f 60/59/80 39/37/77 59/58/78
f 21/4/42 40/39/79 41/41/44
f 41/41/44 40/39/79 60/59/80
s 3
f 61/167/81 62/168/82 80/169/83
f 62/168/82 63/170/84 80/169/83
f 63/170/84 64/171/85 80/169/83
f 64/171/85 65/172/86 80/169/83
f 65/172/86 66/173/87 80/169/83
f 66/173/87 67/174/88 80/169/83
f 67/174/88 68/175/89 80/169/83
f 68/175/89 69/176/90 80/169/83
f 69/176/90 70/177/91 80/169/83
f 70/177/91 71/178/92 80/169/83
f 71/178/92 72/179/93 80/169/83
f 72/179/93 73/180/94 80/169/83
f 73/180/94 74/181/95 80/169/83
f 74/181/95 75/182/96 80/169/83
f 75/182/96 76/183/97 80/169/83
f 76/183/97 77/184/98 80/169/83
f 77/184/98 78/185/99 80/169/83
f 78/185/99 79/186/100 80/169/83
s 4
f 2/1/101 3/5/102 61/60/103
f 61/60/103 3/5/102 62/61/104
f 3/5/102 4/7/105 62/61/104
f 62/61/104 4/7/105 63/62/106
f 4/7/105 5/9/107 63/62/106
f 63/62/106 5/9/107 64/161/108
f 5/9/107 6/160/109 64/161/108
f 64/161/108 6/160/109 65/162/110
f 6/10/109 7/12/111 65/83/110
f 65/83/110 7/12/111 66/84/112
f 7/12/111 8/14/113 66/84/112
f 66/84/112 8/14/113 67/85/114
f 8/14/113 9/16/115 67/85/114
f 67/85/114 9/16/115 68/86/116
f 9/16/115 10/18/117 68/86/116
f 68/86/116 10/18/117 69/87/118
f 10/18/117 11/20/119 69/87/118
f 69/87/118 11/20/119 70/88/120
f 11/20/119 12/22/121 70/88/120
f 70/88/120 12/22/121 71/89/122
f 12/22/121 13/24/123 71/89/122
f 71/89/122 13/24/123 72/90/124
f 13/24/123 14/26/125 72/90/124
f 72/90/124 14/26/125 73/91/126
f 14/26/125 15/28/127 73/91/126
f 73/91/126 15/28/127 74/92/128
f 15/28/127 16/30/129 74/92/128
f 74/92/128 16/30/129 75/93/130
f 16/30/129 17/32/131 75/93/130
f 75/93/130 17/32/131 76/94/132
f 17/32/131 18/34/133 76/94/132
f 76/94/132 18/34/133 77/95/134
f 18/34/133 19/36/135 77/95/134
f 77/95/134 19/36/135 78/96/136
f 19/36/135 20/38/137 78/96/136
f 78/96/136 20/38/137 79/97/138
f 20/38/137 1/2/139 79/97/138
f 79/97/138 1/2/139 80/98/140
f 1/2/139 2/1/101 80/98/140
f 80/98/140 2/1/101 61/60/103
s 5
f 82/187/141 42/188/142 81/189/143
f 81/189/143 42/188/142 41/190/144
f 83/191/145 43/192/146 82/187/141
f 82/187/141 43/192/146 42/188/142
f 84/193/147 44/194/148 83/191/145
f 83/191/145 44/194/148 43/192/146
f 85/195/149 45/196/150 84/193/147
f 84/193/147 45/196/150 44/194/148
f 86/197/151 46/198/152 85/195/149
f 85/195/149 46/198/152 45/196/150
f 87/199/153 47/200/154 86/197/151
f 86/197/151 47/200/154 46/198/152
f 88/201/155 48/202/156 87/199/153
f 87/199/153 48/202/156 47/200/154
f 89/203/157 49/204/158 88/201/155
f 88/201/155 49/204/158 48/202/156
f 90/205/159 50/206/160 89/203/157
f 89/203/157 50/206/160 49/204/158
f 91/207/161 51/208/162 90/205/159
f 90/205/159 51/208/162 50/206/160
f 92/209/163 52/210/164 91/207/161
f 91/207/161 52/210/164 51/208/162
f 93/211/165 53/212/166 92/209/163
f 92/209/163 53/212/166 52/210/164
f 94/213/167 54/214/168 93/211/165
f 93/211/165 54/214/168 53/212/166
f 95/215/169 55/216/170 94/213/167
f 94/213/167 55/216/170 54/214/168
f 96/217/171 56/218/172 95/215/169
f 95/215/169 56/218/172 55/216/170
f 97/219/173 57/220/174 96/217/171
f 96/217/171 57/220/174 56/218/172
f 98/221/175 58/222/176 97/219/173
f 97/219/173 58/222/176 57/220/174
f 99/223/177 59/224/178 98/221/175
f 98/221/175 59/224/178 58/222/176
f 100/225/179 60/226/180 99/223/177
f 99/223/177 60/226/180 59/224/178
f 81/189/143 41/190/144 100/225/179
f 100/225/179 41/190/144 60/226/180
s 24
f 101/227/181 120/228/182 102/229/183
f 120/228/182 119/230/184 102/229/183
f 119/230/184 118/231/185 102/229/183
f 118/231/185 117/232/186 102/229/183
f 117/232/186 116/233/187 102/229/183
f 116/233/187 115/234/188 102/229/183
f 115/234/188 114/235/189 102/229/183
f 114/235/189 113/236/190 102/229/183
f 113/236/190 112/237/191 102/229/183
f 112/237/191 111/238/192 102/229/183
f 111/238/192 110/239/193 102/229/183
f 110/239/193 109/240/194 102/229/183
f 109/240/194 108/241/195 102/229/183
f 108/241/195 107/242/196 102/229/183
f 107/242/196 106/243/197 102/229/183
f 106/243/197 105/244/198 102/229/183
f 105/244/198 104/245/199 102/229/183
f 104/245/199 103/246/200 102/229/183
s 25
f 82/99/201 101/119/202 83/101/203
f 83/101/203 101/119/202 102/120/204
f 83/101/203 102/120/204 84/102/205
f 84/102/205 102/120/204 103/121/206
f 84/102/205 103/121/206 85/103/207
f 85/103/207 103/121/206 104/164/208
f 85/103/207 104/164/208 86/165/209
f 86/165/209 104/164/208 105/166/210
f 86/104/209 105/122/210 87/105/211
f 87/105/211 105/122/210 106/143/212
f 87/105/211 106/143/212 88/106/213
f 88/106/213 106/143/212 107/144/214
f 88/106/213 107/144/214 89/107/215
f 89/107/215 107/144/214 108/145/216
f 89/107/215 108/145/216 90/108/217
f 90/108/217 108/145/216 109/146/218
f 90/108/217 109/146/218 91/109/219
f 91/109/219 109/146/218 110/147/220
f 91/109/219 110/147/220 92/110/221
f 92/110/221 110/147/220 111/148/222
f 92/110/221 111/148/222 93/111/223
f 93/111/223 111/148/222 112/149/224
f 93/111/223 112/149/224 94/112/225
f 94/112/225 112/149/224 113/150/226
f 94/112/225 113/150/226 95/113/227
f 95/113/227 113/150/226 114/151/228
f 95/113/227 114/151/228 96/114/229
f 96/114/229 114/151/228 115/152/230
f 96/114/229 115/152/230 97/115/231
f 97/115/231 115/152/230 116/153/232
f 97/115/231 116/153/232 98/116/233
f 98/116/233 116/153/232 117/154/234
f 98/116/233 117/154/234 99/117/235
f 99/117/235 117/154/234 118/155/236
f 99/117/235 118/155/236 100/118/237
f 100/118/237 118/155/236 119/156/238
f 100/118/237 119/156/238 81/100/239
f 81/100/239 119/156/238 120/157/240
f 81/100/239 120/157/240 82/99/201
f 82/99/201 120/157/240 101/119/202
