# This file uses centimeters as units for non-parametric coordinates.

mtllib WaterGrass_01.mtl
g default
v 0.125222 -2.262850 -0.276111
v 0.125222 -2.262850 -6.117483
v 0.125222 16.677746 -0.276111
v 0.125222 16.677746 -6.117483
v -1.940015 -2.262850 -5.262033
v 2.190459 -2.262850 -1.131560
v -1.940015 16.677746 -5.262033
v 2.190459 16.677746 -1.131560
v -1.940015 -2.262850 -1.131560
v 2.190459 -2.262850 -5.262033
v -1.940015 16.677746 -1.131560
v 2.190459 16.677746 -5.262033
v 3.045908 -2.262850 -3.196797
v -2.795464 -2.262850 -3.196797
v 3.045908 16.677746 -3.196797
v -2.795464 16.677746 -3.196797
v -1.598225 -2.757863 5.511152
v -1.598225 -2.757863 -1.894090
v -1.598225 31.945829 5.511152
v -1.598225 31.945829 -1.894090
v -4.216374 -2.757863 -0.809618
v 1.019923 -2.757863 4.426681
v -4.216374 31.945829 -0.809618
v 1.019923 31.945829 4.426681
v -4.216374 -2.757863 4.426681
v 1.019923 -2.757863 -0.809618
v -4.216374 31.945829 4.426681
v 1.019923 31.945829 -0.809618
v 2.104396 -2.757863 1.808532
v -5.300847 -2.757863 1.808532
v 2.104396 31.945829 1.808532
v -5.300847 31.945829 1.808532
v 3.387866 -1.690539 3.406472
v 3.387866 -1.690539 -2.874942
v 3.387866 24.807753 3.406472
v 3.387866 24.807753 -2.874942
v 1.167051 -1.690539 -1.955050
v 5.608682 -1.690539 2.486581
v 1.167051 24.807753 -1.955050
v 5.608682 24.807753 2.486581
v 1.167051 -1.690539 2.486581
v 5.608682 -1.690539 -1.955050
v 1.167051 24.807753 2.486581
v 5.608682 24.807753 -1.955050
v 6.528574 -1.690539 0.265765
v 0.247159 -1.690539 0.265765
v 6.528574 24.807753 0.265765
v 0.247159 24.807753 0.265765
v 0.125222 -2.262850 -0.276111
v 0.125222 -2.262850 -6.117483
v 0.125222 16.677746 -0.276111
v 0.125222 16.677746 -6.117483
v -1.940015 -2.262850 -5.262033
v 2.190459 -2.262850 -1.131560
v -1.940015 16.677746 -5.262033
v 2.190459 16.677746 -1.131560
v -1.940015 -2.262850 -1.131560
v 2.190459 -2.262850 -5.262033
v -1.940015 16.677746 -1.131560
v 2.190459 16.677746 -5.262033
v 3.045908 -2.262850 -3.196797
v -2.795464 -2.262850 -3.196797
v 3.045908 16.677746 -3.196797
v -2.795464 16.677746 -3.196797
v -1.598225 -2.757863 5.511152
v -1.598225 -2.757863 -1.894090
v -1.598225 31.945829 5.511152
v -1.598225 31.945829 -1.894090
v -4.216374 -2.757863 -0.809618
v 1.019923 -2.757863 4.426681
v -4.216374 31.945829 -0.809618
v 1.019923 31.945829 4.426681
v -4.216374 -2.757863 4.426681
v 1.019923 -2.757863 -0.809618
v -4.216374 31.945829 4.426681
v 1.019923 31.945829 -0.809618
v 2.104396 -2.757863 1.808532
v -5.300847 -2.757863 1.808532
v 2.104396 31.945829 1.808532
v -5.300847 31.945829 1.808532
v 3.387866 -1.690539 3.406472
v 3.387866 -1.690539 -2.874942
v 3.387866 24.807753 3.406472
v 3.387866 24.807753 -2.874942
v 1.167051 -1.690539 -1.955050
v 5.608682 -1.690539 2.486581
v 1.167051 24.807753 -1.955050
v 5.608682 24.807753 2.486581
v 1.167051 -1.690539 2.486581
v 5.608682 -1.690539 -1.955050
v 1.167051 24.807753 2.486581
v 5.608682 24.807753 -1.955050
v 6.528574 -1.690539 0.265765
v 0.247159 -1.690539 0.265765
v 6.528574 24.807753 0.265765
v 0.247159 24.807753 0.265765
vt 0.980771 0.348161
vt 0.684548 0.348161
vt 0.980771 0.986404
vt 0.684548 0.986404
vt 0.980771 0.348161
vt 0.684548 0.348161
vt 0.684548 0.986404
vt 0.980771 0.986404
vt 0.980771 0.348161
vt 0.684548 0.348161
vt 0.684548 0.986404
vt 0.980771 0.986404
vt 0.980771 0.348161
vt 0.684548 0.348161
vt 0.684548 0.986404
vt 0.980771 0.986404
vt 0.981382 0.022889
vt 0.685159 0.022889
vt 0.685159 0.986404
vt 0.981382 0.986404
vt 0.981382 0.022889
vt 0.685159 0.022889
vt 0.685159 0.986404
vt 0.981382 0.986404
vt 0.981382 0.022889
vt 0.685159 0.022889
vt 0.685159 0.986404
vt 0.981382 0.986404
vt 0.685159 0.022889
vt 0.981382 0.022889
vt 0.981382 0.986404
vt 0.685159 0.986404
vt 0.980771 0.022889
vt 0.684548 0.022889
vt 0.684548 0.986404
vt 0.980771 0.986404
vt 0.684548 0.022889
vt 0.980771 0.022889
vt 0.980771 0.986404
vt 0.684548 0.986404
vt 0.980771 0.022889
vt 0.684548 0.022889
vt 0.684548 0.986404
vt 0.980771 0.986404
vt 0.980771 0.022889
vt 0.684548 0.022889
vt 0.684548 0.986404
vt 0.980771 0.986404
vt 0.980771 0.348161
vt 0.684548 0.348161
vt 0.684548 0.986404
vt 0.980771 0.986404
vt 0.980771 0.348161
vt 0.684548 0.348161
vt 0.684548 0.986404
vt 0.980771 0.986404
vt 0.980771 0.348161
vt 0.684548 0.348161
vt 0.684548 0.986404
vt 0.980771 0.986404
vt 0.980771 0.348161
vt 0.684548 0.348161
vt 0.684548 0.986404
vt 0.980771 0.986404
vt 0.981382 0.022889
vt 0.685159 0.022889
vt 0.685159 0.986404
vt 0.981382 0.986404
vt 0.981382 0.022889
vt 0.685159 0.022889
vt 0.685159 0.986404
vt 0.981382 0.986404
vt 0.981382 0.022889
vt 0.685159 0.022889
vt 0.685159 0.986404
vt 0.981382 0.986404
vt 0.685159 0.022889
vt 0.981382 0.022889
vt 0.981382 0.986404
vt 0.685159 0.986404
vt 0.980771 0.022889
vt 0.684548 0.022889
vt 0.684548 0.986404
vt 0.980771 0.986404
vt 0.684548 0.022889
vt 0.980771 0.022889
vt 0.980771 0.986404
vt 0.684548 0.986404
vt 0.980771 0.022889
vt 0.684548 0.022889
vt 0.684548 0.986404
vt 0.980771 0.986404
vt 0.980771 0.022889
vt 0.684548 0.022889
vt 0.684548 0.986404
vt 0.980771 0.986404
vn -1.000000 0.000000 0.000000
vn -1.000000 0.000000 0.000000
vn -1.000000 0.000000 0.000000
vn -1.000000 0.000000 0.000000
vn 0.707107 0.000000 -0.707107
vn 0.707107 0.000000 -0.707107
vn 0.707107 0.000000 -0.707107
vn 0.707107 0.000000 -0.707107
vn -0.707107 0.000000 -0.707107
vn -0.707107 0.000000 -0.707107
vn -0.707107 0.000000 -0.707107
vn -0.707107 0.000000 -0.707107
vn 0.000000 0.000000 1.000000
vn 0.000000 0.000000 1.000000
vn 0.000000 0.000000 1.000000
vn 0.000000 0.000000 1.000000
vn -1.000000 0.000000 0.000000
vn -1.000000 0.000000 0.000000
vn -1.000000 0.000000 0.000000
vn -1.000000 0.000000 0.000000
vn 0.707107 0.000000 -0.707107
vn 0.707107 0.000000 -0.707107
vn 0.707107 0.000000 -0.707107
vn 0.707107 0.000000 -0.707107
vn -0.707107 0.000000 -0.707107
vn -0.707107 0.000000 -0.707107
vn -0.707107 0.000000 -0.707107
vn -0.707107 0.000000 -0.707107
vn 0.000000 0.000000 1.000000
vn 0.000000 0.000000 1.000000
vn 0.000000 0.000000 1.000000
vn 0.000000 0.000000 1.000000
vn -1.000000 0.000000 0.000000
vn -1.000000 0.000000 0.000000
vn -1.000000 0.000000 0.000000
vn -1.000000 0.000000 0.000000
vn 0.707107 0.000000 -0.707107
vn 0.707107 0.000000 -0.707107
vn 0.707107 0.000000 -0.707107
vn 0.707107 0.000000 -0.707107
vn -0.707107 0.000000 -0.707107
vn -0.707107 0.000000 -0.707107
vn -0.707107 0.000000 -0.707107
vn -0.707107 0.000000 -0.707107
vn 0.000000 0.000000 1.000000
vn 0.000000 0.000000 1.000000
vn 0.000000 0.000000 1.000000
vn 0.000000 0.000000 1.000000
vn 1.000000 0.000000 0.000000
vn 1.000000 0.000000 0.000000
vn 1.000000 0.000000 0.000000
vn 1.000000 0.000000 0.000000
vn -0.707107 0.000000 0.707107
vn -0.707107 0.000000 0.707107
vn -0.707107 0.000000 0.707107
vn -0.707107 0.000000 0.707107
vn 0.707107 0.000000 0.707107
vn 0.707107 0.000000 0.707107
vn 0.707107 0.000000 0.707107
vn 0.707107 0.000000 0.707107
vn 0.000000 0.000000 -1.000000
vn 0.000000 0.000000 -1.000000
vn 0.000000 0.000000 -1.000000
vn 0.000000 0.000000 -1.000000
vn 1.000000 0.000000 0.000000
vn 1.000000 0.000000 0.000000
vn 1.000000 0.000000 0.000000
vn 1.000000 0.000000 0.000000
vn -0.707107 0.000000 0.707107
vn -0.707107 0.000000 0.707107
vn -0.707107 0.000000 0.707107
vn -0.707107 0.000000 0.707107
vn 0.707107 0.000000 0.707107
vn 0.707107 0.000000 0.707107
vn 0.707107 0.000000 0.707107
vn 0.707107 0.000000 0.707107
vn 0.000000 0.000000 -1.000000
vn 0.000000 0.000000 -1.000000
vn 0.000000 0.000000 -1.000000
vn 0.000000 0.000000 -1.000000
vn 1.000000 0.000000 0.000000
vn 1.000000 0.000000 0.000000
vn 1.000000 0.000000 0.000000
vn 1.000000 0.000000 0.000000
vn -0.707107 0.000000 0.707107
vn -0.707107 0.000000 0.707107
vn -0.707107 0.000000 0.707107
vn -0.707107 0.000000 0.707107
vn 0.707107 0.000000 0.707107
vn 0.707107 0.000000 0.707107
vn 0.707107 0.000000 0.707107
vn 0.707107 0.000000 0.707107
vn 0.000000 0.000000 -1.000000
vn 0.000000 0.000000 -1.000000
vn 0.000000 0.000000 -1.000000
vn 0.000000 0.000000 -1.000000
s 1
g polySurface7
usemtl lambert2SG
f 1/1/1 3/3/2 2/2/3
f 2/2/3 3/3/2 4/4/4
s 2
f 5/5/5 7/8/6 6/6/7
f 6/6/7 7/8/6 8/7/8
s 3
f 9/9/9 11/12/10 10/10/11
f 10/10/11 11/12/10 12/11/12
s 4
f 13/13/13 15/16/14 14/14/15
f 14/14/15 15/16/14 16/15/16
s 5
f 17/17/17 19/20/18 18/18/19
f 18/18/19 19/20/18 20/19/20
s 6
f 21/21/21 23/24/22 22/22/23
f 22/22/23 23/24/22 24/23/24
s 7
f 25/25/25 27/28/26 26/26/27
f 26/26/27 27/28/26 28/27/28
s 8
f 29/29/29 31/32/30 30/30/31
f 30/30/31 31/32/30 32/31/32
s 9
f 33/33/33 35/36/34 34/34/35
f 34/34/35 35/36/34 36/35/36
s 10
f 37/37/37 39/40/38 38/38/39
f 38/38/39 39/40/38 40/39/40
s 11
f 41/41/41 43/44/42 42/42/43
f 42/42/43 43/44/42 44/43/44
s 12
f 45/45/45 47/48/46 46/46/47
f 46/46/47 47/48/46 48/47/48
s 13
f 49/49/49 50/50/50 51/52/51
f 51/52/51 50/50/50 52/51/52
s 14
f 53/53/53 54/54/54 55/56/55
f 55/56/55 54/54/54 56/55/56
s 15
f 57/57/57 58/58/58 59/60/59
f 59/60/59 58/58/58 60/59/60
s 16
f 61/61/61 62/62/62 63/64/63
f 63/64/63 62/62/62 64/63/64
s 17
f 65/65/65 66/66/66 67/68/67
f 67/68/67 66/66/66 68/67/68
s 18
f 69/69/69 70/70/70 71/72/71
f 71/72/71 70/70/70 72/71/72
s 19
f 73/73/73 74/74/74 75/76/75
f 75/76/75 74/74/74 76/75/76
s 20
f 77/77/77 78/78/78 79/80/79
f 79/80/79 78/78/78 80/79/80
s 21
f 81/81/81 82/82/82 83/84/83
f 83/84/83 82/82/82 84/83/84
s 22
f 85/85/85 86/86/86 87/88/87
f 87/88/87 86/86/86 88/87/88
s 23
f 89/89/89 90/90/90 91/92/91
f 91/92/91 90/90/90 92/91/92
s 24
f 93/93/93 94/94/94 95/96/95
f 95/96/95 94/94/94 96/95/96
